<?xml version="1.0" standalone="no"?>
<!DOCTYPE svg PUBLIC "-//W3C//DTD SVG 20010904//EN"
 "http://www.w3.org/TR/2001/REC-SVG-20010904/DTD/svg10.dtd">
<svg version="1.0" xmlns="http://www.w3.org/2000/svg"
 width="1280.000000pt" height="720.000000pt" viewBox="0 0 1280.000000 720.000000"
 preserveAspectRatio="xMidYMid meet">

<g transform="translate(0.000000,720.000000) scale(0.100000,-0.100000)"
fill="#000000" stroke="none">
<path d="M4945 5468 c-3 -7 -4 -319 -3 -693 l3 -680 693 -3 692 -2 0 22 c0 13
1 323 3 690 2 549 0 669 -11 673 -8 3 -319 5 -693 5 -535 0 -681 -3 -684 -12z
m543 -462 c5 -3 35 -49 67 -103 33 -54 64 -106 71 -116 11 -17 20 -5 86 102
64 106 76 120 101 121 15 0 27 -2 27 -5 0 -3 -41 -71 -91 -152 l-90 -147 3
-71 c3 -70 3 -70 -24 -73 l-28 -3 0 77 0 78 -85 137 c-104 168 -103 167 -71
164 14 -2 29 -6 34 -9z"/>
<path d="M6392 2988 l3 -693 690 0 690 0 3 693 2 692 -695 0 -695 0 2 -692z
m808 206 c102 -59 108 -203 11 -262 l-29 -17 49 -68 c27 -36 49 -71 49 -77 0
-5 -11 -10 -24 -10 -19 0 -37 17 -75 70 l-51 70 -75 0 -75 0 0 -70 0 -70 -30
0 -30 0 0 231 0 231 123 -4 c100 -3 129 -8 157 -24z"/>
<path d="M6980 3061 l0 -111 70 0 c75 0 134 18 156 48 16 21 18 83 3 115 -16
36 -53 49 -146 55 l-83 5 0 -112z"/>
<path d="M4995 2151 l40 -6 3 -92 c4 -123 22 -121 22 1 l0 95 38 4 c20 2 -3 4
-53 4 -58 0 -76 -2 -50 -6z"/>
<path d="M5163 2060 c1 -75 4 -100 14 -100 8 0 13 12 13 30 0 28 2 30 38 30
31 0 41 -5 55 -30 10 -16 25 -30 33 -30 11 0 8 9 -11 34 -25 33 -25 34 -6 47
31 22 36 60 11 92 -19 24 -28 27 -85 27 l-63 0 1 -100z m112 78 c19 -9 25 -19
25 -44 0 -39 -21 -54 -74 -54 l-36 0 0 55 c0 54 0 55 30 55 16 0 41 -5 55 -12z"/>
<path d="M5393 2066 c-24 -51 -43 -96 -43 -100 0 -15 18 -3 28 19 10 23 17 25
70 25 53 0 60 -2 70 -25 9 -20 32 -35 32 -21 0 19 -92 196 -102 196 -7 0 -32
-42 -55 -94z m84 14 l22 -50 -50 0 -49 0 16 38 c9 20 18 43 21 50 9 21 17 13
40 -38z"/>
<path d="M5561 2153 c31 -81 86 -193 94 -193 6 0 32 45 58 100 27 59 41 100
34 100 -7 0 -30 -39 -52 -87 l-40 -87 -37 84 c-20 47 -42 86 -48 88 -7 3 -11
0 -9 -5z"/>
<path d="M5790 2060 l0 -100 75 0 c43 0 75 4 75 10 0 6 -29 10 -66 10 l-65 0
3 38 3 37 55 6 55 5 -55 5 -55 4 0 35 0 35 60 6 60 6 -72 1 -73 2 0 -100z"/>
<path d="M5990 2060 l0 -100 70 0 c40 0 70 4 70 10 0 6 -27 10 -60 10 l-60 0
0 90 c0 53 -4 90 -10 90 -6 0 -10 -40 -10 -100z"/>
<path d="M6240 2060 l0 -100 63 0 c94 0 136 42 90 92 -13 14 -14 21 -5 30 18
18 14 56 -7 68 -11 5 -47 10 -80 10 l-61 0 0 -100z m114 80 c31 -11 35 -45 7
-60 -11 -5 -38 -10 -60 -10 -40 0 -41 1 -41 33 0 19 3 37 7 40 9 10 58 8 87
-3z m10 -90 c28 -10 34 -38 14 -58 -7 -7 -36 -12 -65 -12 l-53 0 0 34 c0 19 6
37 13 39 21 9 64 7 91 -3z"/>
<path d="M6478 2132 c-69 -63 -20 -172 78 -172 91 0 138 108 75 171 -41 41
-107 41 -153 1z m140 -18 c69 -78 -39 -178 -122 -113 -19 15 -26 30 -26 54 0
49 9 66 44 81 40 17 75 10 104 -22z"/>
<path d="M6710 2085 c0 -67 3 -79 25 -100 30 -31 83 -33 116 -6 21 17 24 30
27 100 3 55 1 81 -7 81 -7 0 -11 -24 -11 -62 0 -82 -15 -112 -59 -116 -55 -6
-71 18 -71 105 0 42 -4 73 -10 73 -6 0 -10 -32 -10 -75z"/>
<path d="M6943 2153 l37 -4 0 -95 c0 -122 18 -124 22 -1 l3 92 40 6 c26 4 8 6
-50 6 -49 0 -73 -2 -52 -4z"/>
<path d="M7110 2060 c0 -60 4 -100 10 -100 6 0 10 40 10 100 0 60 -4 100 -10
100 -6 0 -10 -40 -10 -100z"/>
<path d="M7227 2149 c-21 -12 -47 -61 -47 -89 0 -37 28 -77 62 -89 18 -7 40
-17 48 -22 41 -25 61 -31 84 -25 14 3 26 11 26 16 0 6 -11 8 -25 4 -14 -3 -33
-3 -42 0 -14 6 -11 12 19 36 20 16 39 41 42 56 9 36 -10 89 -39 108 -27 18
-101 21 -128 5z m97 -13 c22 -9 37 -24 44 -45 25 -73 -46 -134 -123 -105 -19
8 -45 55 -45 82 0 27 36 70 63 75 12 2 23 5 25 6 1 0 18 -5 36 -13z"/>
<path d="M7440 2101 c0 -69 15 -118 40 -131 30 -16 76 -11 104 11 24 19 26 26
26 100 0 46 -4 79 -10 79 -6 0 -10 -31 -10 -74 0 -84 -13 -106 -60 -106 -47 0
-60 22 -60 106 0 59 -3 74 -15 74 -12 0 -15 -13 -15 -59z"/>
<path d="M7680 2060 l0 -100 70 0 c40 0 70 4 70 10 0 6 -27 10 -61 10 l-60 0
3 38 3 37 55 6 55 6 -57 1 -58 2 0 40 0 39 63 4 62 3 -72 2 -73 2 0 -100z"/>
</g>
</svg>
