<?xml version="1.0" standalone="no"?>
<!DOCTYPE svg PUBLIC "-//W3C//DTD SVG 20010904//EN"
 "http://www.w3.org/TR/2001/REC-SVG-20010904/DTD/svg10.dtd">
<svg version="1.0" xmlns="http://www.w3.org/2000/svg"
 width="980.000000pt" height="980.000000pt" viewBox="0 0 980.000000 980.000000"
 preserveAspectRatio="xMidYMid meet">

<g transform="translate(0.000000,980.000000) scale(0.100000,-0.100000)"
fill="#000000" stroke="none">
<path d="M1948 7895 c-240 -40 -448 -174 -583 -375 -55 -82 -88 -155 -118
-258 l-22 -77 0 -2285 c0 -2188 1 -2288 18 -2350 57 -199 162 -359 311 -471
102 -78 196 -125 315 -158 l96 -26 2885 -3 c2070 -2 2908 0 2965 8 364 51 635
286 738 638 l22 77 0 2285 0 2285 -22 77 c-42 145 -104 256 -201 363 -92 100
-242 198 -367 238 -151 49 -25 47 -3094 46 -2291 -1 -2881 -4 -2943 -14z
m5912 -358 c180 -61 324 -216 359 -389 8 -37 10 -488 9 -1495 l-3 -1441 -115
95 c-195 161 -329 242 -493 297 -147 49 -229 61 -402 60 -184 -1 -294 -20
-442 -77 -139 -54 -42 3 -1056 -614 -230 -140 -424 -253 -432 -251 -8 2 -181
143 -386 313 -204 171 -396 329 -426 353 -340 271 -779 351 -1188 216 -118
-39 -219 -93 -525 -279 -694 -422 -1179 -715 -1184 -715 -3 0 -6 786 -6 1746
0 1561 2 1753 16 1808 52 200 215 351 417 385 29 5 1327 8 2927 7 2765 -1
2877 -2 2930 -19z m-3955 -3246 c89 -24 221 -83 291 -132 58 -40 2288 -1898
2292 -1910 2 -6 -887 -8 -2245 -7 l-2248 3 -65 22 c-130 45 -236 134 -298 251
-55 104 -62 149 -62 427 l0 250 168 101 c92 56 273 166 402 244 129 79 318
194 420 255 102 62 290 176 419 254 323 196 381 224 537 256 98 20 286 14 389
-14z m3467 15 c144 -28 264 -79 380 -163 37 -26 159 -124 272 -218 l205 -170
0 -530 c1 -585 1 -591 -62 -709 -41 -80 -136 -173 -217 -214 -112 -56 -165
-62 -552 -62 l-347 0 -458 382 c-394 329 -999 833 -1012 845 -10 8 38 40 329
216 168 101 433 262 590 357 157 95 320 188 364 206 154 67 352 90 508 60z"/>
<path d="M3304 6726 c-294 -67 -520 -290 -595 -586 -30 -117 -23 -321 13 -425
52 -146 119 -249 227 -346 148 -134 319 -199 526 -199 301 0 573 167 704 435
53 108 71 180 78 311 19 362 -195 673 -542 790 -67 22 -101 27 -215 30 -91 2
-155 -1 -196 -10z m358 -378 c92 -46 167 -122 211 -215 30 -64 32 -75 32 -179
0 -107 -1 -112 -37 -185 -58 -116 -140 -189 -259 -229 -53 -18 -81 -21 -159
-18 -82 3 -104 9 -161 36 -209 101 -310 353 -224 560 48 114 149 209 264 249
55 20 82 23 162 21 88 -3 103 -7 171 -40z"/>
</g>
</svg>
