<?xml version="1.0" standalone="no"?>
<!DOCTYPE svg PUBLIC "-//W3C//DTD SVG 20010904//EN"
 "http://www.w3.org/TR/2001/REC-SVG-20010904/DTD/svg10.dtd">
<svg version="1.0" xmlns="http://www.w3.org/2000/svg"
 width="512.000000pt" height="512.000000pt" viewBox="0 0 512.000000 512.000000"
 preserveAspectRatio="xMidYMid meet">

<g transform="translate(0.000000,512.000000) scale(0.100000,-0.100000)"
fill="#000000" stroke="none">
<path d="M1624 4022 c-227 -121 -369 -312 -414 -556 -27 -146 10 -399 61 -427
28 -15 66 -4 85 26 14 22 14 28 0 72 -59 177 -28 396 78 556 55 83 157 171
245 214 96 46 111 59 111 94 0 68 -62 76 -166 21z"/>
<path d="M3347 4042 c-18 -19 -22 -59 -9 -78 4 -6 41 -28 82 -47 210 -101 341
-283 371 -517 9 -73 -3 -190 -26 -261 -19 -57 -8 -95 30 -105 49 -12 72 9 97
88 19 61 23 95 23 208 -1 157 -15 222 -76 346 -73 150 -191 268 -343 344 -86
44 -124 49 -149 22z"/>
<path d="M1735 3801 c-172 -81 -286 -264 -287 -461 -2 -155 37 -233 106 -216
43 11 50 38 31 119 -42 185 44 365 216 450 60 30 64 35 67 69 2 28 -2 40 -20
52 -31 22 -44 20 -113 -13z"/>
<path d="M3272 3814 c-18 -12 -22 -24 -20 -52 3 -34 8 -39 73 -75 39 -21 87
-54 107 -74 51 -49 94 -135 109 -216 11 -58 10 -78 -5 -148 -16 -74 -16 -83
-1 -105 21 -33 78 -34 99 -1 37 57 49 209 26 312 -31 138 -146 284 -271 343
-77 37 -86 38 -117 16z"/>
<path d="M2489 3761 c-25 -26 -29 -37 -29 -88 l0 -58 -73 -23 c-166 -51 -296
-178 -360 -349 -20 -53 -22 -82 -27 -358 -6 -349 2 -317 -125 -475 -46 -58
-84 -112 -85 -121 -1 -44 -5 -43 770 -47 l738 -4 17 26 c18 27 18 27 -31 89
-118 151 -144 189 -153 224 -6 22 -11 148 -11 298 0 289 -6 331 -62 444 -65
128 -212 247 -352 282 l-46 11 0 60 c0 52 -3 63 -29 89 -23 23 -38 29 -71 29
-33 0 -48 -6 -71 -29z"/>
<path d="M1845 3578 c-52 -27 -82 -54 -111 -103 -34 -59 -47 -131 -34 -191 13
-59 34 -84 70 -84 43 0 55 24 55 111 0 90 15 119 83 157 62 34 70 96 16 120
-32 15 -31 15 -79 -10z"/>
<path d="M3176 3571 c-30 -33 -17 -72 31 -99 69 -38 88 -73 88 -163 0 -85 12
-109 55 -109 82 0 101 167 32 280 -54 88 -165 137 -206 91z"/>
<path d="M2304 2129 c17 -108 107 -194 223 -214 54 -9 135 14 189 53 43 31 88
106 98 165 l7 37 -262 0 -262 0 7 -41z"/>
<path d="M1742 1407 c-48 -18 -102 -65 -118 -103 -19 -45 -18 -118 2 -161 9
-19 33 -45 53 -59 33 -22 64 -34 211 -79 71 -22 100 -48 100 -92 0 -61 -50
-89 -141 -81 -53 5 -93 33 -110 76 -8 20 -15 22 -80 22 l-72 0 6 -37 c7 -41
48 -97 96 -130 91 -62 289 -54 380 14 69 53 91 162 48 243 -28 54 -108 101
-211 126 -75 18 -126 39 -138 58 -4 6 -8 26 -8 43 0 44 36 67 101 66 57 -1 96
-23 105 -58 6 -24 10 -25 80 -25 84 0 87 4 54 69 -26 51 -82 97 -136 110 -56
14 -180 13 -222 -2z"/>
<path d="M2426 1395 c-73 -30 -128 -82 -164 -155 -25 -50 -27 -65 -27 -170 0
-142 20 -195 100 -269 70 -63 138 -85 244 -79 131 8 225 71 280 187 23 50 26
68 26 166 0 94 -4 118 -24 163 -32 70 -115 147 -183 167 -79 23 -182 19 -252
-10z m225 -118 c19 -12 45 -43 59 -67 21 -39 25 -58 25 -135 0 -76 -4 -98 -25
-139 -37 -73 -67 -91 -150 -91 -81 0 -111 17 -150 86 -22 39 -25 56 -25 144 0
91 3 104 27 146 33 57 75 78 149 79 42 0 65 -6 90 -23z"/>
<path d="M3150 1411 c-92 -30 -141 -85 -148 -166 -10 -127 38 -172 257 -235
84 -24 121 -55 121 -98 0 -51 -29 -75 -97 -80 -76 -5 -128 17 -151 65 -16 33
-16 33 -85 33 l-70 0 6 -36 c16 -98 112 -164 247 -172 96 -5 166 10 221 50 91
66 106 202 31 281 -37 40 -83 61 -193 92 -124 35 -139 45 -139 95 0 50 27 70
92 70 60 0 94 -16 110 -52 12 -27 15 -28 85 -28 44 0 73 4 73 10 0 21 -32 85
-53 108 -44 47 -96 65 -192 69 -49 1 -101 -1 -115 -6z"/>
<path d="M85 1220 c-4 -7 -3 -16 3 -22 14 -14 57 -6 57 12 0 18 -50 26 -60 10z
m25 -10 c0 -5 -4 -10 -10 -10 -5 0 -10 5 -10 10 0 6 5 10 10 10 6 0 10 -4 10
-10z m30 0 c0 -5 -4 -10 -10 -10 -5 0 -10 5 -10 10 0 6 5 10 10 10 6 0 10 -4
10 -10z"/>
<path d="M114 1165 c-4 -8 -11 -12 -18 -9 -6 4 -3 -1 6 -11 14 -15 20 -16 32
-6 15 13 11 41 -5 41 -5 0 -12 -7 -15 -15z m21 -4 c3 -5 1 -12 -5 -16 -5 -3
-10 1 -10 9 0 18 6 21 15 7z"/>
<path d="M85 1110 c-3 -5 -3 -14 0 -20 8 -13 35 -13 35 1 0 5 5 7 10 4 6 -3
10 -2 10 3 0 19 -45 28 -55 12z m25 -10 c0 -5 -4 -10 -10 -10 -5 0 -10 5 -10
10 0 6 5 10 10 10 6 0 10 -4 10 -10z"/>
<path d="M85 1051 c-10 -18 4 -30 33 -28 36 3 36 31 0 35 -14 2 -29 -2 -33 -7z
m25 -11 c0 -5 -4 -10 -10 -10 -5 0 -10 5 -10 10 0 6 5 10 10 10 6 0 10 -4 10
-10z m30 0 c0 -5 -4 -10 -10 -10 -5 0 -10 5 -10 10 0 6 5 10 10 10 6 0 10 -4
10 -10z"/>
<path d="M100 1000 l-24 -6 24 -17 c19 -13 26 -14 29 -5 2 7 8 16 13 19 15 10
-14 16 -42 9z"/>
<path d="M87 943 c-14 -13 -6 -25 8 -13 13 10 19 10 35 -5 19 -18 20 -17 20 6
0 17 -3 20 -9 10 -6 -9 -11 -10 -15 -2 -8 12 -29 15 -39 4z"/>
<path d="M81 884 c0 -11 3 -14 6 -6 3 7 2 16 -1 19 -3 4 -6 -2 -5 -13z"/>
<path d="M110 890 c0 -6 5 -8 11 -4 6 3 16 0 21 -7 8 -12 9 -11 5 1 -4 18 -37
27 -37 10z"/>
<path d="M114 835 c-4 -8 -11 -12 -17 -8 -6 3 -7 1 -3 -5 10 -17 26 -15 26 2
0 8 6 17 13 19 9 4 9 6 -1 6 -7 1 -15 -6 -18 -14z"/>
<path d="M87 784 c-4 -4 -7 -12 -7 -18 0 -6 5 -4 10 4 8 12 11 13 19 1 7 -11
9 -11 14 0 5 12 8 11 17 -1 10 -13 11 -13 7 0 -4 16 -48 26 -60 14z"/>
<path d="M97 743 c-4 -6 0 -19 9 -27 21 -21 24 -20 24 7 0 16 -3 19 -9 8 -7
-11 -10 -10 -13 5 -2 13 -6 15 -11 7z"/>
<path d="M98 653 c12 -2 32 -2 45 0 12 2 2 4 -23 4 -25 0 -35 -2 -22 -4z"/>
<path d="M135 609 c-4 -6 -14 -8 -22 -5 -8 3 -11 2 -8 -3 3 -5 -3 -12 -12 -14
-10 -3 -3 -5 16 -6 19 0 31 2 28 6 -4 3 -2 12 4 20 6 7 9 13 6 13 -3 0 -9 -5
-12 -11z"/>
<path d="M101 547 c-1 -13 5 -18 21 -15 12 2 23 9 24 16 1 7 0 8 -3 2 -7 -14
-30 -13 -36 3 -3 7 -6 4 -6 -6z"/>
<path d="M127 509 c7 -9 10 -19 6 -22 -10 -11 -21 -8 -26 6 -2 7 -3 6 -3 -3 2
-20 32 -25 39 -6 3 8 -2 20 -11 28 -15 11 -15 11 -5 -3z"/>
<path d="M90 448 c0 -4 11 -8 24 -8 14 0 27 4 30 8 3 5 -8 9 -24 9 -17 0 -30
-4 -30 -9z"/>
<path d="M81 413 c-1 -28 23 -31 38 -5 9 15 12 15 21 2 6 -9 10 -10 10 -3 0
21 -21 25 -40 8 -17 -15 -19 -15 -23 2 -4 14 -5 14 -6 -4z"/>
<path d="M102 333 c4 -23 34 -29 42 -8 5 13 2 14 -16 4 -18 -10 -20 -9 -15 5
4 9 2 16 -4 16 -6 0 -9 -8 -7 -17z"/>
<path d="M100 286 c0 -8 -8 -17 -17 -19 -10 -3 1 -5 25 -6 23 0 42 3 42 8 0 5
-9 7 -20 4 -11 -3 -20 -1 -20 5 0 6 8 13 18 15 13 4 11 5 -5 6 -14 1 -23 -5
-23 -13z"/>
<path d="M102 223 c2 -10 12 -19 23 -20 17 -2 17 -1 2 3 -11 4 -16 12 -13 20
3 8 1 14 -5 14 -6 0 -9 -8 -7 -17z"/>
<path d="M96 165 c19 -29 27 -31 44 -10 17 20 4 35 -31 35 -29 0 -29 0 -13
-25z m36 0 c0 -5 -5 -11 -11 -13 -6 -2 -11 4 -11 13 0 9 5 15 11 13 6 -2 11
-8 11 -13z"/>
<path d="M98 123 c-10 -2 -18 -9 -18 -14 0 -6 8 -5 20 1 14 7 20 7 20 0 0 -5
-6 -10 -12 -11 -7 0 -2 -5 11 -10 13 -5 26 -7 29 -4 3 3 0 5 -7 5 -8 0 -11 8
-8 20 5 20 -1 22 -35 13z"/>
</g>
</svg>
