<?xml version="1.0" standalone="no"?>
<!DOCTYPE svg PUBLIC "-//W3C//DTD SVG 20010904//EN"
 "http://www.w3.org/TR/2001/REC-SVG-20010904/DTD/svg10.dtd">
<svg version="1.0" xmlns="http://www.w3.org/2000/svg"
 width="227.000000pt" height="222.000000pt" viewBox="0 0 227.000000 222.000000"
 preserveAspectRatio="xMidYMid meet">

<g transform="translate(0.000000,222.000000) scale(0.100000,-0.100000)"
fill="#000000" stroke="none">
<path d="M895 1853 c-286 -23 -462 -69 -531 -138 l-24 -24 0 -648 c0 -573 2
-651 16 -671 49 -70 285 -129 582 -146 l92 -5 0 35 0 34 -48 0 c-149 0 -415
43 -500 80 -84 37 -82 33 -82 208 0 142 1 154 18 149 9 -3 44 -15 77 -27 84
-30 258 -58 408 -66 l127 -7 0 35 0 35 -87 2 c-212 4 -438 49 -515 103 l-28
19 0 156 c0 144 1 155 18 148 181 -71 318 -90 647 -90 327 0 486 22 648 90 16
7 17 -4 17 -144 l0 -151 35 0 36 0 -3 431 -3 431 -39 34 c-107 92 -530 155
-861 127z m541 -87 c160 -28 294 -78 294 -110 0 -59 -212 -116 -507 -137 -314
-23 -707 31 -805 111 -22 18 -22 19 -5 38 39 43 194 89 372 111 120 14 542 6
651 -13z m-822 -277 c155 -32 306 -42 536 -36 262 8 441 37 542 88 l38 19 0
-175 0 -175 -42 -21 c-92 -47 -230 -74 -464 -90 -311 -22 -704 28 -798 102
l-26 20 0 169 0 168 62 -25 c34 -14 103 -34 152 -44z"/>
<path d="M2060 765 c0 -8 9 -15 20 -15 11 0 20 7 20 15 0 8 -9 15 -20 15 -11
0 -20 -7 -20 -15z"/>
<path d="M1215 695 c-22 -8 -41 -15 -42 -15 -2 0 -3 -15 -3 -33 l0 -34 57 19
c48 17 64 18 96 8 87 -26 67 -91 -73 -244 -70 -76 -90 -104 -90 -127 l0 -29
145 0 145 0 0 30 0 29 -95 3 -95 3 67 75 c120 136 145 198 108 269 -29 56
-132 78 -220 46z"/>
<path d="M1887 703 c-19 -18 -4 -28 38 -25 40 4 45 2 45 -17 0 -18 -6 -21 -40
-21 -31 0 -43 -5 -56 -25 -33 -50 23 -103 81 -77 15 7 26 8 30 2 4 -6 10 -10
16 -10 14 0 11 154 -3 168 -13 13 -100 17 -111 5z m83 -108 c0 -18 -7 -26 -24
-31 -31 -7 -46 1 -46 26 0 20 13 28 48 29 17 1 22 -5 22 -24z"/>
<path d="M2058 633 c4 -92 7 -103 27 -103 12 0 15 16 15 90 0 87 -1 90 -23 90
-22 0 -22 -3 -19 -77z"/>
<path d="M1520 670 l0 -30 85 0 c47 0 85 -3 85 -7 0 -4 -27 -35 -61 -69 -50
-50 -60 -66 -54 -83 6 -20 11 -22 61 -16 51 7 55 6 85 -24 26 -27 30 -37 25
-64 -3 -18 -18 -43 -33 -56 -24 -21 -34 -23 -92 -18 -36 3 -76 8 -88 12 -21 7
-23 4 -23 -24 0 -36 22 -49 102 -58 136 -16 234 82 199 198 -13 42 -43 68 -99
84 l-34 10 61 67 c34 37 61 75 61 87 0 20 -5 21 -140 21 l-140 0 0 -30z"/>
</g>
</svg>
