<?xml version="1.0" standalone="no"?>
<!DOCTYPE svg PUBLIC "-//W3C//DTD SVG 20010904//EN"
 "http://www.w3.org/TR/2001/REC-SVG-20010904/DTD/svg10.dtd">
<svg version="1.0" xmlns="http://www.w3.org/2000/svg"
 width="512.000000pt" height="512.000000pt" viewBox="0 0 512.000000 512.000000"
 preserveAspectRatio="xMidYMid meet">

<g transform="translate(0.000000,512.000000) scale(0.100000,-0.100000)"
fill="#000000" stroke="none">
<path d="M2305 4790 c-122 -12 -242 -32 -350 -59 -22 -5 -60 -15 -85 -21 -45
-11 -147 -44 -185 -60 -48 -20 -104 -45 -159 -71 -60 -29 -104 -36 -121 -20
-26 25 -265 81 -340 81 -55 -1 -143 -23 -207 -52 -109 -51 -195 -169 -239
-329 -11 -42 -16 -47 -58 -59 -104 -30 -181 -77 -261 -160 -89 -91 -125 -178
-124 -301 1 -115 24 -179 106 -286 57 -75 89 -108 165 -166 54 -40 61 -51 43
-62 -5 -3 -10 -19 -10 -35 0 -16 -4 -32 -10 -35 -5 -3 -10 -17 -10 -31 0 -13
-4 -32 -9 -42 -5 -9 -15 -37 -22 -62 -11 -40 -46 -137 -70 -197 -22 -54 -28
-70 -38 -98 -15 -43 -56 -201 -69 -265 -6 -30 -17 -80 -23 -110 -16 -75 -16
-409 0 -480 58 -249 90 -332 198 -499 71 -109 186 -233 298 -318 28 -21 51
-41 53 -45 2 -5 8 -8 12 -8 8 0 126 -72 137 -84 2 -2 -39 -69 -92 -149 -52
-80 -95 -148 -95 -152 0 -4 -8 -19 -19 -33 -29 -43 -111 -202 -111 -218 0 -8
-4 -14 -10 -14 -5 0 -10 -7 -10 -15 0 -8 -4 -23 -9 -33 -13 -23 -56 -146 -70
-202 -7 -25 -16 -57 -21 -73 l-8 -27 64 0 c59 0 64 2 64 22 0 23 16 81 31 110
5 10 9 25 9 33 0 8 4 23 9 33 5 9 20 42 33 72 54 128 138 279 234 425 108 163
112 167 152 146 44 -23 116 -51 222 -86 63 -20 123 -41 132 -46 10 -5 31 -9
47 -9 17 0 32 -4 35 -9 3 -5 23 -11 43 -14 21 -3 61 -10 88 -16 284 -59 582
-85 960 -85 412 -1 727 26 1015 86 25 5 62 12 83 15 20 3 40 9 43 14 3 5 18 9
34 9 16 0 32 5 35 10 3 6 19 10 34 10 15 0 31 3 34 7 6 6 106 43 162 60 11 4
35 15 53 25 18 10 39 18 47 18 8 0 15 5 15 10 0 18 26 10 48 -15 30 -34 132
-193 132 -205 0 -6 3 -10 8 -10 4 0 12 -10 18 -23 6 -12 35 -70 66 -128 57
-110 128 -281 128 -311 0 -9 5 -20 10 -23 6 -3 10 -15 10 -26 0 -11 6 -37 12
-59 13 -40 13 -40 65 -40 52 0 53 1 53 29 0 15 -4 41 -9 57 -5 16 -17 56 -26
89 -18 62 -23 79 -45 130 -7 17 -16 39 -21 50 -14 37 -103 220 -108 225 -3 3
-13 19 -21 35 -8 17 -52 88 -97 159 -46 71 -83 132 -83 136 0 8 88 70 99 70 5
0 11 3 13 8 2 4 28 26 58 49 99 75 246 240 301 338 60 107 109 214 109 236 0
10 5 21 10 24 6 3 10 17 10 30 0 13 4 26 9 29 5 3 11 20 14 38 3 18 13 76 22
128 13 74 15 137 11 285 -5 179 -11 240 -36 360 -6 28 -14 65 -17 83 -3 18 -9
35 -14 38 -5 3 -9 16 -9 30 0 13 -4 32 -10 42 -5 9 -21 53 -35 97 -25 78 -38
112 -56 147 -5 10 -9 25 -9 33 0 8 -4 23 -9 33 -5 9 -15 37 -21 62 -7 25 -16
54 -20 65 -5 11 -14 42 -21 69 l-12 49 39 30 c63 49 180 172 208 220 134 228
88 448 -130 617 -53 41 -168 90 -212 90 -12 0 -24 6 -26 13 -3 6 -12 39 -22
72 -16 55 -27 79 -66 146 -78 135 -266 217 -437 189 -89 -14 -197 -44 -263
-72 l-46 -20 -74 35 c-119 57 -188 87 -198 87 -6 0 -18 4 -28 9 -21 12 -94 33
-237 69 -22 6 -65 15 -95 21 -30 5 -82 15 -115 21 -73 14 -569 21 -680 10z
m525 -110 c137 -14 291 -38 360 -57 30 -8 69 -18 85 -23 154 -40 379 -142 510
-230 59 -40 76 -58 97 -102 29 -59 44 -111 53 -178 3 -25 10 -76 16 -115 5
-38 12 -160 15 -269 l6 -199 -108 9 c-149 12 -372 10 -469 -4 -149 -21 -160
-23 -180 -31 -11 -5 -38 -14 -60 -21 -138 -43 -269 -141 -313 -235 -27 -56
-42 -107 -42 -138 0 -28 -9 -33 -38 -18 -79 41 -262 48 -394 15 -25 -6 -28 -3
-28 17 0 31 -32 119 -60 163 -32 52 -120 127 -186 159 -33 16 -67 33 -76 38
-10 5 -27 9 -37 9 -11 0 -23 5 -26 10 -3 6 -19 10 -34 10 -15 0 -31 4 -37 9
-24 23 -290 43 -485 36 l-176 -6 -7 47 c-9 69 -8 173 5 314 30 338 50 403 146
468 84 57 256 145 343 176 41 15 83 31 92 37 10 5 25 9 33 9 8 0 23 4 33 9 9
5 35 14 57 19 22 6 58 15 80 21 48 12 227 38 345 49 125 13 360 14 480 2z
m-1645 -171 c96 -19 105 -21 110 -29 2 -4 -15 -29 -40 -56 -107 -117 -138
-252 -154 -650 -5 -119 -5 -235 0 -265 12 -70 -8 -183 -36 -213 -17 -19 -36
-24 -101 -29 -209 -17 -372 39 -520 180 -53 50 -124 151 -124 177 0 8 -4 18
-10 21 -6 3 -10 48 -10 101 0 56 4 94 10 94 6 0 10 6 10 14 0 28 52 105 93
139 52 42 132 87 155 87 10 0 23 5 30 12 9 9 12 3 12 -27 0 -21 4 -52 9 -69 5
-17 15 -51 22 -76 21 -75 54 -144 107 -221 52 -77 142 -172 142 -151 0 7 -4
12 -10 12 -5 0 -10 4 -10 10 0 5 -15 31 -34 57 -30 42 -61 103 -86 168 -45
120 -51 291 -15 460 8 35 46 118 58 123 4 2 7 9 7 15 0 27 116 107 175 120 37
8 160 6 210 -4z m3092 -31 c30 -18 67 -49 83 -68 34 -44 70 -114 70 -138 0
-10 4 -22 9 -27 21 -23 32 -216 17 -305 -18 -101 -70 -227 -126 -301 -53 -71
-51 -83 6 -29 117 114 224 328 224 447 0 20 6 36 14 39 8 3 47 -10 88 -29 132
-61 228 -194 228 -316 0 -53 -24 -133 -51 -173 -11 -14 -19 -30 -19 -35 0 -5
-39 -47 -88 -93 -140 -137 -249 -180 -455 -180 -125 0 -129 1 -152 26 -30 33
-33 55 -40 324 -7 284 -35 546 -65 625 -26 68 -61 126 -103 169 -27 29 -43 54
-38 59 9 9 51 21 126 37 22 5 80 7 129 5 78 -3 94 -7 143 -37z m-2577 -1098
c-11 -15 -20 -33 -20 -39 0 -6 -3 -11 -7 -11 -5 0 -13 -10 -19 -23 -26 -52
-69 -132 -74 -137 -3 -3 -12 -18 -20 -35 -8 -16 -17 -32 -20 -35 -3 -3 -15
-25 -28 -50 -49 -94 -77 -145 -83 -150 -3 -3 -12 -20 -20 -37 -8 -18 -17 -33
-21 -33 -5 0 -8 -7 -8 -15 0 -8 -5 -15 -10 -15 -6 0 -9 -3 -8 -7 2 -9 -33 -85
-42 -93 -4 -3 -13 -20 -21 -37 -8 -18 -17 -33 -21 -33 -5 0 -8 -7 -8 -15 0 -8
-4 -15 -10 -15 -5 0 -10 -7 -10 -15 0 -11 -12 -15 -45 -15 -25 0 -45 5 -45 10
0 6 -13 10 -30 10 -16 0 -30 5 -30 10 0 6 -6 10 -12 8 -7 -1 -29 6 -49 16 -28
13 -36 22 -32 37 3 10 9 19 14 19 5 0 9 7 9 15 0 8 4 15 9 15 5 0 11 8 13 18
3 9 6 22 8 27 1 6 15 29 31 52 16 23 29 46 29 52 0 6 5 11 10 11 6 0 10 6 10
13 0 7 9 23 20 35 11 12 20 28 20 37 0 8 5 15 12 15 6 0 8 3 5 6 -4 4 2 19 13
34 11 16 20 33 20 39 0 6 5 11 10 11 6 0 10 5 10 11 0 6 13 30 29 53 17 24 33
55 37 69 3 15 10 27 15 27 5 0 9 5 9 11 0 6 14 30 30 54 17 24 30 48 30 54 0
6 5 11 10 11 6 0 10 7 10 15 0 8 5 15 10 15 6 0 9 3 9 8 -1 4 -1 10 0 14 0 4
64 7 141 7 l140 0 -20 -29z m1968 24 c22 -4 35 -15 44 -35 7 -16 16 -29 20
-29 5 0 8 -7 8 -15 0 -8 4 -15 8 -15 5 0 14 -16 22 -35 8 -19 17 -35 21 -35 4
0 10 -12 14 -27 3 -15 15 -39 26 -54 10 -15 19 -32 19 -38 0 -6 4 -11 8 -11 5
0 14 -16 22 -35 8 -19 16 -35 19 -35 3 0 20 -29 36 -65 17 -36 33 -65 38 -65
4 0 7 -7 7 -15 0 -8 4 -15 9 -15 5 0 11 -8 14 -17 4 -10 18 -37 31 -61 14 -23
27 -45 27 -50 8 -32 13 -42 20 -42 5 0 9 -7 9 -15 0 -8 3 -15 8 -15 4 0 13
-12 19 -27 14 -30 0 -58 -24 -49 -7 3 -13 1 -13 -4 0 -6 -9 -10 -19 -10 -11 0
-23 -4 -26 -10 -3 -5 -19 -10 -36 -10 -16 0 -29 -4 -29 -10 0 -5 -16 -10 -36
-10 -39 0 -63 20 -64 53 0 9 -3 17 -8 17 -4 0 -13 15 -21 33 -8 17 -17 34 -20
37 -8 6 -27 41 -60 105 -14 28 -28 52 -31 55 -3 3 -12 19 -20 35 -8 17 -17 32
-20 35 -3 3 -14 23 -26 45 -62 119 -80 150 -86 153 -5 2 -8 12 -8 23 0 10 -4
19 -10 19 -5 0 -10 7 -10 15 0 8 -4 15 -10 15 -5 0 -10 9 -10 20 0 11 -3 20
-7 20 -5 0 -21 29 -38 65 -16 36 -33 65 -37 65 -5 0 -8 6 -8 13 0 10 24 17 78
24 105 13 115 14 150 7z m-1688 -64 c0 -5 9 -10 20 -10 11 0 20 -4 20 -8 0 -4
16 -14 35 -21 24 -8 35 -19 35 -32 0 -10 -4 -19 -10 -19 -5 0 -10 -7 -10 -15
0 -8 -4 -15 -8 -15 -5 0 -14 -16 -22 -35 -8 -19 -17 -35 -21 -35 -4 0 -10 -13
-14 -30 -4 -16 -10 -30 -15 -30 -4 0 -10 -8 -13 -17 -6 -19 -38 -75 -48 -83
-3 -3 -12 -19 -19 -37 -8 -17 -18 -29 -24 -26 -5 3 -6 1 -2 -5 6 -10 -9 -49
-25 -62 -3 -3 -12 -20 -20 -37 -8 -18 -17 -33 -21 -33 -5 0 -8 -7 -8 -15 0 -8
-3 -15 -7 -15 -5 0 -13 -10 -18 -23 -17 -34 -69 -131 -75 -137 -3 -3 -10 -14
-16 -25 -11 -21 -40 -27 -173 -41 l-65 -7 23 34 c12 19 25 42 28 52 3 9 9 17
14 17 5 0 9 7 9 15 0 8 3 15 8 15 4 0 12 10 17 23 24 51 71 132 78 135 4 2 7
10 7 18 0 8 4 14 9 14 5 0 11 8 14 18 4 9 22 44 42 77 20 33 39 68 42 78 3 9
8 17 12 17 4 0 13 16 21 35 8 19 17 35 22 35 4 0 8 7 8 15 0 8 4 15 8 15 4 0
13 12 19 28 11 27 43 82 53 92 3 3 12 19 20 35 8 17 20 35 25 42 12 15 45 17
45 3z m1240 -37 c0 -7 5 -13 10 -13 6 0 10 -6 10 -14 0 -8 4 -16 8 -18 4 -1
21 -30 37 -63 16 -33 32 -62 35 -65 3 -3 12 -18 20 -35 8 -16 17 -32 20 -35 7
-7 28 -45 59 -105 14 -27 29 -51 33 -53 5 -2 8 -10 8 -18 0 -8 5 -14 10 -14 6
0 10 -9 10 -20 0 -11 3 -20 8 -20 4 0 12 -10 18 -23 18 -38 69 -132 74 -137 3
-3 11 -15 18 -27 6 -13 18 -33 25 -45 6 -13 15 -25 18 -28 4 -3 9 -14 13 -25
6 -19 2 -20 -99 -15 l-105 5 -20 35 c-10 19 -34 64 -52 100 -18 36 -35 67 -38
70 -4 3 -13 20 -21 38 -8 17 -16 32 -20 32 -3 0 -11 16 -19 35 -8 19 -17 35
-21 35 -8 0 -22 40 -20 58 1 6 -3 12 -9 12 -5 0 -10 7 -10 15 0 8 -3 15 -8 15
-4 0 -13 15 -21 33 -8 17 -17 34 -20 37 -8 7 -28 42 -70 125 -20 39 -39 72
-43 73 -26 12 30 62 68 62 8 0 14 5 14 10 0 6 9 10 19 10 11 0 23 5 26 11 8
11 34 -18 35 -38z m-2586 -119 c12 -5 15 -27 15 -116 1 -106 4 -126 39 -228
41 -121 151 -249 267 -314 39 -22 162 -65 240 -84 123 -31 368 -41 481 -22
289 51 434 125 550 282 36 48 94 178 94 209 0 80 260 110 418 48 49 -20 75
-34 77 -44 50 -195 149 -323 317 -410 101 -53 240 -89 408 -106 96 -10 137 -9
250 4 195 24 266 42 370 94 103 52 223 172 264 263 16 36 32 73 37 82 5 10 9
27 9 39 0 11 4 28 10 38 12 23 16 174 6 217 -6 29 -5 32 21 37 15 4 38 9 50
13 19 5 23 0 34 -38 7 -23 16 -47 21 -52 4 -6 8 -20 8 -32 0 -13 4 -26 10 -29
6 -3 10 -13 10 -22 0 -14 57 -184 81 -240 22 -54 28 -69 34 -93 3 -14 12 -47
20 -75 14 -52 29 -126 48 -230 15 -84 14 -455 -1 -530 -7 -33 -16 -75 -19 -93
-3 -18 -9 -35 -14 -38 -5 -3 -9 -16 -9 -29 0 -13 -4 -27 -10 -30 -5 -3 -10
-13 -10 -22 0 -26 -69 -162 -123 -243 -71 -107 -225 -256 -345 -334 -55 -37
-105 -66 -111 -66 -6 0 -11 -3 -11 -8 0 -4 -15 -13 -32 -21 -18 -7 -60 -26
-93 -41 -33 -15 -85 -35 -115 -45 -30 -9 -63 -21 -72 -26 -10 -5 -27 -9 -37
-9 -11 0 -23 -4 -26 -10 -3 -6 -19 -10 -35 -10 -16 0 -31 -4 -34 -9 -3 -5 -23
-11 -43 -14 -21 -3 -60 -10 -88 -16 -184 -39 -352 -58 -630 -71 -517 -24 -957
0 -1290 71 -27 6 -67 13 -88 16 -20 3 -40 9 -43 14 -3 5 -18 9 -35 9 -16 0
-37 4 -47 9 -9 5 -37 15 -62 21 -25 7 -54 16 -65 20 -11 4 -54 20 -95 35 -41
15 -79 32 -85 36 -5 5 -17 9 -27 9 -10 0 -18 5 -18 10 0 6 -6 10 -14 10 -8 0
-42 16 -76 35 -34 19 -64 35 -67 35 -16 0 -155 104 -266 200 -49 42 -145 164
-190 242 -59 102 -76 139 -107 238 -40 131 -45 171 -45 390 1 212 10 303 42
420 8 30 18 69 23 85 8 33 17 59 30 90 8 20 53 143 72 200 5 17 14 39 18 50 4
11 18 54 31 95 12 41 26 79 31 85 4 5 8 19 8 32 0 24 7 27 34 17z"/>
<path d="M2270 2541 c-201 -53 -324 -202 -338 -410 -11 -172 97 -326 281 -400
19 -7 142 -11 379 -11 l350 0 62 29 c148 71 246 215 246 364 0 200 -158 389
-363 433 -97 21 -532 17 -617 -5z m671 -129 c61 -30 127 -97 151 -152 34 -79
7 -169 -70 -227 -35 -27 -53 -37 -115 -62 -41 -16 -620 -15 -667 2 -81 28
-168 105 -171 149 0 7 -4 4 -9 -7 -5 -12 -7 5 -3 45 3 36 9 69 14 75 5 5 9 15
9 22 0 29 91 122 146 148 67 32 92 34 384 32 274 -2 287 -3 331 -25z m176
-319 c-3 -10 -5 -4 -5 12 0 17 2 24 5 18 2 -7 2 -21 0 -30z m-1040 -70 c-3
-10 -5 -4 -5 12 0 17 2 24 5 18 2 -7 2 -21 0 -30z m1033 7 c0 -5 -4 -10 -10
-10 -5 0 -10 5 -10 10 0 6 5 10 10 10 6 0 10 -4 10 -10z m-1013 -52 c-3 -8 -6
-5 -6 6 -1 11 2 17 5 13 3 -3 4 -12 1 -19z m909 -83 c-8 -8 -18 -15 -22 -15
-3 0 -1 7 6 15 7 8 17 15 22 15 5 0 3 -7 -6 -15z m-39 -21 c-3 -3 -12 -4 -19
-1 -8 3 -5 6 6 6 11 1 17 -2 13 -5z m-215 -21 c-95 -2 -248 -2 -340 0 -92 1
-14 3 173 3 187 0 262 -2 167 -3z"/>
<path d="M2314 2225 c-20 -31 -23 -125 -4 -160 20 -37 58 -41 89 -11 22 22 26
35 26 84 0 74 -22 112 -65 112 -21 0 -35 -8 -46 -25z"/>
<path d="M2740 2218 c-37 -60 -19 -162 33 -185 27 -13 55 6 75 50 47 106 -51
228 -108 135z"/>
<path d="M2204 1611 c-23 -10 -53 -34 -68 -53 -24 -33 -26 -41 -26 -146 0
-245 34 -340 150 -418 54 -37 85 -49 170 -69 129 -30 298 -14 407 37 57 27 75
40 126 93 65 67 69 87 68 285 -2 196 -7 212 -79 259 -31 20 -43 22 -106 18
-39 -4 -93 -10 -121 -15 -145 -28 -192 -26 -346 14 -74 19 -126 17 -175 -5z
m186 -117 c92 -25 289 -25 393 0 42 10 89 15 103 12 24 -6 25 -9 22 -77 l-3
-70 -40 -21 c-70 -36 -74 -38 -94 -38 -11 0 -23 -4 -26 -10 -3 -5 -24 -10 -46
-10 -24 0 -38 -4 -34 -10 4 -6 59 -10 132 -10 l126 0 -6 -41 c-10 -75 -75
-139 -172 -169 -22 -7 -50 -16 -63 -21 -13 -5 -56 -9 -97 -9 -193 0 -345 89
-345 203 l0 37 91 0 c88 0 135 12 124 31 -4 5 -21 9 -38 9 -31 0 -98 21 -159
50 -26 12 -28 17 -28 78 0 98 17 105 160 66z"/>
<path d="M3265 493 c-37 -4 -113 -22 -140 -33 -32 -12 -120 -54 -125 -60 -3
-3 -18 -12 -34 -20 -104 -54 -229 -228 -250 -347 l-5 -33 64 0 c55 0 65 3 65
18 1 55 49 140 117 207 56 56 179 125 221 125 11 0 23 4 26 9 7 10 121 25 196
25 61 0 147 -10 200 -24 162 -40 216 -68 327 -164 l33 -28 -10 27 c-23 60
-140 195 -169 195 -6 0 -11 4 -11 9 0 11 -94 57 -145 69 -117 29 -251 39 -360
25z"/>
<path d="M1680 454 c-90 -11 -208 -60 -289 -122 -49 -37 -109 -102 -124 -135
-6 -15 -15 -27 -19 -27 -5 0 -8 -4 -8 -10 0 -19 18 -10 72 35 30 25 60 45 67
45 6 0 11 3 11 8 0 4 15 13 33 20 17 8 41 17 52 22 52 22 255 60 319 60 86 0
315 -54 336 -79 3 -3 19 -13 35 -21 66 -33 185 -186 185 -238 0 -8 22 -12 64
-12 61 0 64 1 59 23 -16 68 -77 170 -138 231 -61 61 -171 136 -199 136 -6 0
-16 4 -21 8 -6 5 -30 14 -55 21 -25 8 -58 17 -75 22 -33 11 -250 20 -305 13z"/>
</g>
</svg>
