<?xml version="1.0" standalone="no"?>
<!DOCTYPE svg PUBLIC "-//W3C//DTD SVG 20010904//EN"
 "http://www.w3.org/TR/2001/REC-SVG-20010904/DTD/svg10.dtd">
<svg version="1.0" xmlns="http://www.w3.org/2000/svg"
 width="512.000000pt" height="512.000000pt" viewBox="0 0 512.000000 512.000000"
 preserveAspectRatio="xMidYMid meet">

<g transform="translate(0.000000,512.000000) scale(0.100000,-0.100000)"
fill="#000000" stroke="none">
<path d="M0 2560 l0 -2560 2560 0 2560 0 0 2560 0 2560 -2560 0 -2560 0 0
-2560z m3398 1120 c151 -33 196 -47 281 -87 239 -112 424 -287 538 -508 103
-200 156 -475 124 -642 -5 -26 -15 -77 -21 -113 -43 -241 -192 -480 -411 -663
-31 -26 -59 -47 -62 -47 -3 0 -35 -18 -71 -40 -36 -22 -68 -40 -71 -40 -3 0
-24 -9 -48 -19 -58 -27 -161 -60 -227 -73 -36 -8 -332 -13 -855 -15 -781 -4
-802 -3 -890 17 -238 55 -416 151 -575 310 -78 78 -82 83 -141 165 -147 206
-225 526 -189 775 11 77 48 225 70 275 40 94 109 217 147 265 7 8 26 33 43 55
38 48 160 158 215 193 22 14 42 28 45 32 6 9 127 71 180 93 45 18 162 53 220
65 64 13 1638 15 1698 2z"/>
<path d="M1820 3270 c-247 -32 -473 -220 -567 -472 -34 -93 -50 -247 -34 -327
26 -122 32 -144 68 -219 39 -82 122 -194 168 -227 15 -11 39 -29 54 -41 60
-48 123 -77 262 -123 27 -8 238 -11 789 -11 739 0 754 1 819 21 36 12 77 27
91 33 32 14 121 67 136 81 6 5 22 17 34 25 30 20 76 69 122 133 21 29 43 57
48 64 6 7 10 16 10 21 0 4 9 26 19 48 11 22 23 54 27 70 4 16 12 35 18 43 13
17 13 335 -1 353 -5 7 -18 36 -28 63 -20 56 -64 147 -74 155 -4 3 -18 21 -31
40 -45 68 -187 183 -260 212 -14 6 -54 22 -90 36 l-65 26 -730 2 c-401 1 -755
-2 -785 -6z"/>
</g>
</svg>
