<?xml version="1.0" standalone="no"?>
<!DOCTYPE svg PUBLIC "-//W3C//DTD SVG 20010904//EN"
 "http://www.w3.org/TR/2001/REC-SVG-20010904/DTD/svg10.dtd">
<svg version="1.0" xmlns="http://www.w3.org/2000/svg"
 width="512.000000pt" height="512.000000pt" viewBox="0 0 512.000000 512.000000"
 preserveAspectRatio="xMidYMid meet">

<g transform="translate(0.000000,512.000000) scale(0.100000,-0.100000)"
fill="#000000" stroke="none">
<path d="M1417 4433 c-10 -9 -8 -265 1 -281 7 -10 267 -12 1268 -10 l1259 3 0
145 0 145 -1261 3 c-693 1 -1264 -1 -1267 -5z m2447 -66 c14 -10 16 -25 14
-82 l-3 -70 -1195 0 -1195 0 -3 68 c-2 42 2 74 9 83 16 20 2345 21 2373 1z"/>
<path d="M1415 4028 c-3 -7 -4 -447 -3 -978 l3 -965 1265 0 1265 0 0 975 0
975 -1263 3 c-1005 2 -1264 0 -1267 -10z m2463 -966 l2 -902 -26 -10 c-36 -14
-2329 -13 -2355 1 -18 9 -19 35 -19 908 0 494 3 901 7 904 3 4 542 6 1197 5
l1191 -3 3 -903z"/>
<path d="M1826 3733 c-22 -23 -155 -251 -162 -280 -4 -16 12 -53 57 -130 34
-60 67 -117 73 -128 30 -56 26 -55 212 -55 l173 0 34 58 c69 113 137 235 137
244 0 18 -151 273 -171 291 -18 15 -43 17 -178 17 -137 0 -160 -2 -175 -17z
m306 -75 c16 -12 106 -163 121 -201 7 -19 -34 -105 -92 -192 l-27 -40 -124 -3
c-69 -1 -130 1 -136 5 -14 10 -124 200 -124 215 0 20 111 208 129 218 25 14
234 13 253 -2z"/>
<path d="M3122 3732 c-9 -7 -12 -72 -10 -293 l3 -284 280 -3 c254 -2 281 -1
293 15 17 24 17 544 0 561 -14 14 -544 17 -566 4z m486 -84 c13 -13 18 -371 6
-402 -5 -14 -34 -16 -214 -16 l-208 0 -5 33 c-8 42 -1 372 8 386 9 16 397 15
413 -1z"/>
<path d="M2617 3648 c-19 -35 -59 -103 -88 -153 -29 -49 -77 -133 -106 -185
-30 -52 -59 -102 -65 -111 -6 -9 -8 -24 -5 -33 6 -14 38 -16 312 -16 256 0
307 2 311 14 3 8 -20 59 -51 113 -31 54 -100 173 -152 266 -53 92 -102 167
-108 167 -7 0 -29 -28 -48 -62z m126 -210 c35 -62 73 -127 82 -144 35 -60 25
-64 -158 -64 -126 0 -167 3 -176 14 -8 10 1 33 42 102 30 49 68 115 86 147 18
31 38 57 46 57 7 0 42 -51 78 -112z"/>
<path d="M2265 2878 c-137 -52 -211 -163 -203 -308 7 -119 58 -197 168 -256
53 -29 210 -27 265 3 100 53 157 144 163 259 4 61 0 81 -23 132 -51 114 -142
175 -265 179 -41 1 -88 -3 -105 -9z m156 -73 c89 -32 153 -108 165 -198 6 -40
2 -56 -24 -110 -21 -41 -45 -71 -70 -89 -109 -76 -251 -48 -323 64 -29 45 -33
60 -33 117 0 54 5 74 27 108 33 52 84 94 134 109 53 17 74 16 124 -1z"/>
<path d="M2876 2868 c-7 -13 -24 -57 -36 -98 -12 -41 -35 -113 -51 -159 -16
-47 -27 -92 -24 -100 5 -16 295 -231 312 -231 10 0 36 18 206 143 109 81 117
92 97 139 -5 13 -28 84 -51 158 -23 74 -49 143 -57 153 -13 15 -36 17 -198 17
-179 0 -184 0 -198 -22z m336 -70 c13 -11 88 -228 88 -256 0 -14 -204 -162
-223 -162 -9 0 -35 15 -59 33 -24 17 -66 48 -95 67 -78 53 -78 53 -35 184 21
63 44 122 51 130 11 13 37 16 135 16 83 0 127 -4 138 -12z"/>
<path d="M1580 1682 c-90 -45 -118 -197 -52 -288 38 -53 134 -70 202 -36 49
24 69 70 70 163 0 63 -4 82 -23 110 -27 41 -79 69 -127 69 -19 0 -51 -8 -70
-18z m105 -32 c15 -6 35 -20 45 -33 41 -50 33 -173 -15 -214 -28 -25 -82 -30
-116 -13 -29 16 -52 69 -53 125 -1 68 20 114 58 131 38 16 48 17 81 4z"/>
<path d="M1940 1678 c-60 -31 -80 -72 -80 -163 0 -81 20 -123 72 -155 55 -33
178 -24 178 14 0 9 -19 12 -71 12 -67 -1 -72 1 -99 31 -54 60 -47 172 13 217
23 17 41 21 88 19 32 -1 59 1 59 5 -1 22 -23 35 -66 39 -38 3 -60 -1 -94 -19z"/>
<path d="M2477 1679 c-104 -56 -102 -269 3 -321 79 -40 175 -12 212 62 22 43
24 147 4 194 -31 75 -141 108 -219 65z m117 -29 c81 -30 90 -201 14 -254 -29
-21 -77 -20 -107 0 -69 49 -68 202 3 245 35 21 53 23 90 9z"/>
<path d="M2777 1694 c-4 -4 -7 -81 -7 -170 0 -187 -1 -184 88 -184 34 0 59 7
83 23 61 41 71 145 20 209 -16 19 -28 23 -78 23 l-58 0 -5 50 c-3 34 -10 51
-20 53 -9 1 -19 0 -23 -4z m147 -156 c26 -42 24 -106 -5 -137 -16 -17 -30 -21
-57 -19 l-37 3 -3 74 c-2 61 0 75 15 87 28 21 70 17 87 -8z"/>
<path d="M2176 1675 c-9 -25 -7 -298 3 -314 5 -8 16 -11 25 -8 14 6 16 27 14
169 -3 141 -5 163 -19 166 -9 2 -19 -4 -23 -13z"/>
<path d="M3052 1673 c2 -10 10 -18 18 -18 8 0 16 8 18 18 2 12 -3 17 -18 17
-15 0 -20 -5 -18 -17z"/>
<path d="M3687 1654 c-4 -4 -7 -15 -7 -24 0 -9 -9 -25 -20 -35 -17 -16 -18
-20 -5 -38 10 -14 15 -46 15 -87 0 -36 6 -76 13 -90 15 -31 62 -49 79 -32 10
10 7 18 -15 38 -24 22 -27 32 -27 89 0 54 3 67 20 77 25 16 25 30 1 45 -11 7
-21 22 -23 34 -3 23 -19 35 -31 23z"/>
<path d="M3215 1591 c-35 -15 -55 -47 -61 -97 -7 -67 6 -105 46 -131 51 -35
150 -29 150 9 0 4 -24 8 -54 8 -61 0 -89 18 -84 54 3 19 11 22 78 26 72 5 75
6 78 32 9 76 -75 131 -153 99z m89 -44 c10 -7 16 -22 14 -33 -3 -16 -12 -19
-53 -19 -38 0 -50 4 -53 16 -7 39 55 63 92 36z"/>
<path d="M3473 1590 c-39 -16 -58 -58 -58 -128 0 -59 2 -66 33 -93 35 -31 94
-39 133 -19 33 18 21 30 -31 30 -65 0 -90 23 -90 84 0 64 29 96 86 96 31 0 44
4 44 14 0 24 -72 34 -117 16z"/>
<path d="M3044 1448 c-1 -79 -3 -154 -5 -167 -6 -37 18 -36 41 1 18 30 20 47
18 168 l-3 135 -25 3 -25 3 -1 -143z"/>
<path d="M1902 1120 c-63 -15 -94 -67 -71 -122 9 -21 30 -38 85 -64 80 -38
101 -62 84 -93 -14 -26 -40 -33 -108 -29 -48 2 -57 0 -60 -14 -4 -23 34 -38
94 -38 102 0 166 80 118 148 -9 13 -49 39 -89 58 -76 36 -93 59 -70 91 11 14
27 18 77 18 60 0 68 3 68 24 0 19 -82 32 -128 21z"/>
<path d="M2119 1053 c-5 -14 -17 -32 -27 -39 -16 -11 -16 -13 1 -31 12 -15 17
-37 17 -86 0 -83 11 -111 49 -126 52 -22 68 6 26 45 -21 20 -25 32 -25 83 0
58 11 83 42 94 9 3 4 13 -14 30 -16 14 -28 33 -28 42 0 25 -30 17 -41 -12z"/>
<path d="M2340 1022 c-33 -5 -60 -30 -76 -69 -53 -124 64 -240 174 -173 18 11
37 32 42 46 14 37 12 111 -4 142 -21 41 -79 64 -136 54z m59 -47 c33 -17 41
-33 41 -84 0 -54 -23 -81 -70 -81 -46 0 -70 26 -70 77 0 52 27 93 68 102 2 1
16 -6 31 -14z"/>
<path d="M3040 1022 c-54 -8 -86 -61 -68 -113 8 -24 8 -37 -2 -52 -18 -29 -21
-127 -5 -153 20 -31 94 -48 148 -33 56 14 77 35 77 74 0 42 -22 60 -93 76 -32
7 -60 16 -62 20 -3 3 19 10 49 13 35 5 60 14 72 27 18 20 37 119 25 130 -8 8
-107 16 -141 11z m73 -46 c23 -18 22 -63 -2 -76 -32 -17 -69 -12 -85 12 -20
29 -20 34 4 58 23 23 57 25 83 6z m11 -209 c13 -10 16 -20 12 -35 -6 -19 -15
-22 -61 -22 -43 0 -56 4 -65 19 -18 35 -2 51 49 51 26 0 55 -6 65 -13z"/>
<path d="M2616 1011 c-4 -5 -22 -7 -42 -4 l-35 6 3 -119 c3 -111 4 -119 23
-119 18 0 20 8 23 74 3 78 15 106 54 125 13 6 23 18 23 26 0 17 -40 26 -49 11z"/>
<path d="M2727 1013 c-4 -3 -7 -13 -7 -21 0 -12 9 -13 44 -9 34 5 50 2 67 -12
25 -20 18 -41 -14 -41 -12 0 -39 -5 -59 -11 -69 -18 -85 -96 -31 -139 28 -22
78 -27 88 -9 4 6 23 9 44 7 l36 -3 3 99 c3 90 1 101 -19 122 -19 20 -32 24
-84 24 -34 0 -65 -3 -68 -7z m121 -146 c6 -28 -27 -57 -63 -57 -45 0 -59 34
-29 65 23 22 88 17 92 -8z"/>
<path d="M3277 1009 c-64 -37 -59 -189 6 -232 33 -21 105 -22 135 -1 33 23 18
34 -47 34 -61 0 -81 11 -81 47 0 21 5 22 78 25 l77 3 -1 43 c-1 63 -32 92 -98
92 -28 0 -59 -5 -69 -11z m108 -45 c25 -26 12 -39 -43 -42 -45 -3 -52 -1 -52
15 0 42 62 59 95 27z"/>
</g>
</svg>
