<?xml version="1.0" standalone="no"?>
<!DOCTYPE svg PUBLIC "-//W3C//DTD SVG 20010904//EN"
 "http://www.w3.org/TR/2001/REC-SVG-20010904/DTD/svg10.dtd">
<svg version="1.0" xmlns="http://www.w3.org/2000/svg"
 width="512.000000pt" height="512.000000pt" viewBox="0 0 512.000000 512.000000"
 preserveAspectRatio="xMidYMid meet">

<g transform="translate(0.000000,512.000000) scale(0.100000,-0.100000)"
fill="#000000" stroke="none">
<path d="M3408 4927 l-15 -52 31 -13 c17 -7 38 -20 47 -28 14 -12 22 -13 38
-4 12 6 21 14 21 19 0 13 -49 98 -63 108 -35 27 -45 22 -59 -30z"/>
<path d="M2549 4893 c-13 -16 -12 -17 4 -4 16 13 21 21 13 21 -2 0 -10 -8 -17
-17z"/>
<path d="M2578 4873 c6 -2 18 -2 25 0 6 3 1 5 -13 5 -14 0 -19 -2 -12 -5z"/>
<path d="M1658 4841 c-47 -30 -58 -46 -58 -87 l0 -24 38 23 c20 12 51 30 67
39 34 19 43 42 25 63 -17 20 -19 19 -72 -14z"/>
<path d="M2098 4755 c-3 -3 -2 -20 2 -36 7 -24 6 -29 -8 -29 -9 0 -24 -5 -32
-11 -11 -7 -6 -8 20 -3 46 8 53 13 41 27 -5 7 -11 23 -13 35 -1 13 -6 21 -10
17z"/>
<path d="M2126 4747 c3 -10 9 -15 12 -12 3 3 0 11 -7 18 -10 9 -11 8 -5 -6z"/>
<path d="M3091 4747 c-6 -6 -11 -16 -11 -21 0 -6 5 -3 11 6 5 10 16 15 24 12
8 -4 15 -4 15 -1 0 11 -28 15 -39 4z"/>
<path d="M2541 4710 c-13 -11 -33 -20 -45 -21 -11 0 -15 -3 -8 -6 16 -6 72 16
72 29 0 6 7 7 16 4 8 -3 12 -2 9 4 -9 14 -17 12 -44 -10z"/>
<path d="M2703 4698 c11 -10 27 -18 36 -17 10 0 7 4 -8 10 -14 5 -30 13 -36
17 -6 4 -2 -1 8 -10z"/>
<path d="M3107 4703 c-8 -12 5 -28 23 -29 8 -1 33 -4 55 -8 37 -5 38 -5 10 5
-16 5 -39 12 -49 14 -11 3 -23 10 -27 16 -3 6 -9 7 -12 2z"/>
<path d="M1727 4664 c-3 -4 -3 -20 0 -36 3 -16 2 -28 -3 -26 -8 3 -18 -9 -11
-14 5 -4 227 56 222 60 -2 3 -45 -6 -95 -18 -49 -13 -92 -21 -96 -17 -3 3 -7
17 -8 31 0 14 -1 26 -2 26 0 0 -3 -3 -7 -6z"/>
<path d="M2018 4663 c7 -3 16 -2 19 1 4 3 -2 6 -13 5 -11 0 -14 -3 -6 -6z"/>
<path d="M2111 4654 c0 -11 3 -14 6 -6 3 7 2 16 -1 19 -3 4 -6 -2 -5 -13z"/>
<path d="M1688 4653 c-9 -2 -19 -11 -22 -20 -5 -13 -4 -14 8 -4 8 7 20 10 26
6 5 -3 10 1 10 9 0 9 -1 15 -2 15 -2 -1 -10 -3 -20 -6z"/>
<path d="M1958 4653 c6 -2 18 -2 25 0 6 3 1 5 -13 5 -14 0 -19 -2 -12 -5z"/>
<path d="M2770 4656 c0 -2 8 -10 18 -17 15 -13 16 -12 3 4 -13 16 -21 21 -21
13z"/>
<path d="M3238 4653 c6 -2 18 -2 25 0 6 3 1 5 -13 5 -14 0 -19 -2 -12 -5z"/>
<path d="M3513 4648 c0 -7 11 -13 24 -13 21 0 22 1 6 13 -9 6 -20 12 -23 12
-4 0 -7 -6 -7 -12z"/>
<path d="M2422 4636 c-18 -7 -43 -23 -55 -36 l-22 -24 26 22 c14 12 32 22 40
22 8 0 24 7 35 15 22 17 20 17 -24 1z"/>
<path d="M3380 4619 c133 -37 132 -37 138 -20 3 10 0 12 -11 8 -9 -3 -58 5
-109 18 -51 14 -100 24 -108 24 -8 0 32 -14 90 -30z"/>
<path d="M2825 4623 c11 -3 29 -12 40 -22 20 -16 20 -16 1 7 -11 12 -29 21
-40 21 -20 -1 -20 -2 -1 -6z"/>
<path d="M2280 4562 c0 -32 10 -51 25 -46 18 7 30 -15 16 -29 -9 -9 -14 -9
-20 1 -6 11 -10 10 -15 -4 -11 -29 2 -53 26 -46 15 3 19 1 16 -9 -3 -8 -13
-14 -24 -14 -12 0 -20 -8 -22 -22 -2 -13 1 -23 7 -23 6 0 12 -10 12 -22 1 -17
2 -19 6 -5 3 13 16 17 61 19 l57 1 -64 6 c-71 7 -100 31 -37 31 20 0 36 5 36
10 0 6 9 10 19 10 11 0 23 5 26 10 12 19 38 11 32 -10 -3 -13 0 -20 9 -20 8 0
14 10 14 25 0 25 -1 25 -85 25 -50 0 -85 4 -85 10 0 6 11 10 25 10 13 0 39 9
57 20 40 24 73 27 64 5 -3 -9 0 -15 9 -15 9 0 15 10 15 25 0 25 -1 25 -86 25
-64 0 -85 3 -82 13 3 6 18 15 34 18 22 5 24 7 7 8 -12 0 -28 4 -37 7 -11 4
-16 0 -16 -14z"/>
<path d="M2938 4555 l4 -25 -81 0 c-80 0 -81 0 -81 -25 0 -14 5 -25 10 -25 6
0 10 7 10 15 0 20 13 19 62 -5 23 -11 50 -20 60 -20 10 0 18 -4 18 -10 0 -6
-33 -10 -80 -10 -79 0 -80 0 -80 -25 0 -14 5 -25 10 -25 6 0 10 9 10 20 0 11
2 20 5 20 3 0 25 -9 47 -20 23 -11 47 -20 54 -20 7 0 10 8 7 20 -4 15 0 20 15
20 21 0 32 16 25 36 -2 7 -13 9 -25 6 -15 -4 -19 -1 -17 13 2 10 9 18 14 18
18 -2 35 19 35 43 0 14 -6 24 -14 24 -9 0 -12 -8 -8 -25z"/>
<path d="M2413 4563 c26 -2 68 -2 95 0 26 2 4 3 -48 3 -52 0 -74 -1 -47 -3z"/>
<path d="M2778 4563 c7 -3 16 -2 19 1 4 3 -2 6 -13 5 -11 0 -14 -3 -6 -6z"/>
<path d="M2478 4500 c2 -16 6 -30 8 -30 2 0 18 9 36 20 37 22 72 26 66 8 -3
-7 -20 -16 -39 -19 -19 -4 13 -6 71 -6 58 0 88 2 68 4 -25 3 -38 9 -38 19 0
19 13 18 60 -5 43 -21 50 -19 50 16 l0 23 -143 0 -144 0 5 -30z m152 -6 c0
-16 -16 -19 -25 -4 -8 13 4 32 16 25 5 -4 9 -13 9 -21z"/>
<path d="M1460 4460 c0 -5 5 -10 11 -10 5 0 7 5 4 10 -3 6 -8 10 -11 10 -2 0
-4 -4 -4 -10z"/>
<path d="M1498 4443 c7 -3 16 -2 19 1 4 3 -2 6 -13 5 -11 0 -14 -3 -6 -6z"/>
<path d="M2475 4425 c0 -17 6 -25 18 -25 9 0 17 5 17 10 0 6 8 10 18 10 10 0
23 5 29 11 15 15 34 3 26 -16 -4 -12 4 -15 35 -15 35 0 39 2 35 20 -3 11 -2
20 1 20 4 0 26 -9 48 -20 53 -26 58 -25 58 5 l0 25 -142 0 -143 0 0 -25z m155
0 c0 -8 -4 -15 -10 -15 -5 0 -10 7 -10 15 0 8 5 15 10 15 6 0 10 -7 10 -15z"/>
<path d="M3725 4440 l-20 -9 20 0 c11 0 27 4 35 9 13 9 13 10 0 9 -8 0 -24 -4
-35 -9z"/>
<path d="M3678 4423 c7 -3 16 -2 19 1 4 3 -2 6 -13 5 -11 0 -14 -3 -6 -6z"/>
<path d="M1340 4400 c-20 -8 -16 -9 19 -5 23 3 58 0 76 -7 23 -8 41 -9 56 -2
19 9 17 10 -17 11 -21 1 -55 4 -74 7 -19 2 -46 1 -60 -4z"/>
<path d="M2538 4403 c7 -3 16 -2 19 1 4 3 -2 6 -13 5 -11 0 -14 -3 -6 -6z"/>
<path d="M2688 4403 c7 -3 16 -2 19 1 4 3 -2 6 -13 5 -11 0 -14 -3 -6 -6z"/>
<path d="M2838 4403 c7 -3 16 -2 19 1 4 3 -2 6 -13 5 -11 0 -14 -3 -6 -6z"/>
<path d="M2934 4393 c1 -15 -10 -19 -59 -23 l-60 -6 61 -4 c64 -5 91 7 80 36
-8 20 -24 18 -22 -3z"/>
<path d="M3799 4394 c-9 -11 -23 -14 -49 -11 -19 3 -44 2 -54 -2 -13 -5 -1 -8
35 -9 35 -1 59 4 70 14 13 12 22 13 38 5 11 -6 30 -11 43 -10 15 0 7 5 -22 15
-25 7 -46 14 -46 14 -1 0 -8 -7 -15 -16z"/>
<path d="M1264 4378 l-19 -23 23 19 c21 18 27 26 19 26 -2 0 -12 -10 -23 -22z"/>
<path d="M1610 4391 c0 -5 7 -12 16 -15 24 -9 7 -26 -55 -53 -31 -14 -93 -45
-138 -69 -81 -45 -82 -45 -63 -64 20 -20 21 -19 126 30 59 28 104 53 101 56
-3 3 -19 -2 -36 -10 -19 -10 -32 -12 -36 -6 -12 19 6 28 53 27 45 0 47 0 45
27 -1 19 2 26 11 23 14 -6 15 16 2 46 -8 18 -26 24 -26 8z m-101 -134 c6 -8 8
-17 4 -20 -7 -8 -33 11 -33 24 0 13 16 11 29 -4z m-68 -52 c-42 -19 -51 -19
-51 0 0 11 11 15 43 15 l42 -1 -34 -14z"/>
<path d="M3590 4375 c-6 -8 -10 -22 -7 -32 4 -14 5 -13 6 5 1 19 5 22 21 17
23 -7 28 10 6 18 -8 3 -20 0 -26 -8z"/>
<path d="M2500 4369 c-11 -7 -5 -8 22 -3 30 5 37 3 41 -13 4 -15 5 -15 6 -1 0
9 11 19 24 21 12 2 0 5 -28 5 -27 1 -57 -3 -65 -9z"/>
<path d="M2642 4373 c9 -2 19 -12 21 -21 4 -16 5 -16 6 0 0 9 11 19 24 21 12
2 2 4 -23 4 -25 1 -37 -1 -28 -4z"/>
<path d="M3603 4328 c3 -9 1 -20 -5 -26 -19 -19 1 -29 46 -26 44 3 63 -6 51
-26 -4 -6 -17 -4 -35 5 -46 24 -49 17 -5 -10 46 -29 55 -30 55 -11 0 17 18 31
27 22 3 -3 0 -13 -7 -22 -19 -22 2 -34 46 -27 46 8 70 -2 54 -22 -7 -9 -10
-18 -6 -22 3 -4 12 0 19 9 6 9 18 17 25 20 8 2 -50 37 -129 77 -84 44 -140 68
-136 59z"/>
<path d="M3680 4329 c26 -18 70 -40 70 -35 0 6 -66 46 -76 46 -5 0 -2 -5 6
-11z"/>
<path d="M2915 4321 c-3 -6 -23 -11 -43 -11 -28 0 -33 -3 -22 -10 24 -15 67
-12 74 6 8 20 1 30 -9 15z"/>
<path d="M1651 4317 c2 -1 13 -9 24 -17 19 -14 19 -14 6 3 -7 9 -18 17 -24 17
-6 0 -8 -1 -6 -3z"/>
<path d="M2317 4299 c4 -14 11 -15 35 -8 44 12 44 16 0 21 -32 3 -38 0 -35
-13z"/>
<path d="M3560 4310 c-9 -6 -10 -10 -3 -10 6 0 15 5 18 10 8 12 4 12 -15 0z"/>
<path d="M1680 4271 c0 -6 9 -19 21 -30 l21 -19 -123 -61 c-67 -34 -124 -63
-127 -65 -4 -5 56 -126 63 -126 2 0 2 6 -1 14 -4 11 6 16 43 19 l48 3 -53 2
c-46 2 -54 5 -64 28 -11 22 -9 27 7 37 20 11 19 11 -1 16 -17 5 4 19 91 61 62
30 116 60 119 67 2 6 -6 23 -20 38 -13 14 -24 21 -24 16z"/>
<path d="M1592 4242 c-45 -23 -52 -30 -47 -49 3 -13 1 -23 -5 -23 -9 0 -14 14
-11 33 1 4 -26 -6 -60 -23 -44 -23 -59 -35 -55 -46 3 -9 6 -18 6 -20 0 -2 5
-4 11 -4 6 0 8 9 4 20 -3 11 -3 20 2 21 4 0 24 2 43 4 l35 4 -35 -19 c-61 -33
-25 -22 65 21 47 23 84 43 81 46 -2 3 -13 0 -24 -6 -28 -15 -42 -14 -42 4 0
11 12 15 43 16 23 1 48 1 55 0 13 -2 15 9 6 33 -8 20 -8 20 -72 -12z"/>
<path d="M2520 4250 c-9 -6 -10 -10 -3 -10 6 0 15 5 18 10 8 12 4 12 -15 0z"/>
<path d="M2700 4250 c8 -5 20 -10 25 -10 6 0 3 5 -5 10 -8 5 -19 10 -25 10 -5
0 -3 -5 5 -10z"/>
<path d="M3561 4247 c-20 -20 -11 -33 46 -61 44 -21 58 -25 64 -14 5 7 9 17 9
23 0 5 5 4 12 -3 8 -8 8 -15 -1 -26 -10 -12 -7 -17 18 -30 38 -20 54 -20 21 0
l-25 15 25 -5 c14 -3 35 -6 48 -6 20 0 21 -3 12 -20 -13 -25 5 -28 19 -3 8 15
-2 24 -62 56 -125 67 -174 86 -186 74z m99 -53 c0 -8 -5 -14 -10 -14 -11 0
-70 28 -70 33 0 1 18 1 40 -1 26 -3 40 -9 40 -18z"/>
<path d="M3514 4234 c-18 -14 -18 -15 4 -4 12 6 22 13 22 15 0 8 -5 6 -26 -11z"/>
<path d="M2405 4216 c-42 -9 -50 -14 -47 -31 2 -11 7 -24 12 -28 4 -5 5 3 3
16 -4 22 -1 26 34 31 21 4 45 11 53 16 18 12 10 11 -55 -4z"/>
<path d="M2810 4210 c33 -11 78 -12 83 -2 3 4 -21 8 -52 8 -40 1 -49 0 -31 -6z"/>
<path d="M3500 4189 c0 -5 5 -7 10 -4 6 4 58 -17 116 -45 77 -38 104 -56 100
-67 -4 -9 -1 -13 6 -11 33 11 10 32 -95 83 -117 56 -137 63 -137 44z"/>
<path d="M3770 4190 c8 -5 20 -10 25 -10 6 0 3 5 -5 10 -8 5 -19 10 -25 10 -5
0 -3 -5 5 -10z"/>
<path d="M2540 4180 c-9 -6 -10 -10 -3 -10 6 0 15 5 18 10 8 12 4 12 -15 0z"/>
<path d="M2545 4140 c-16 -17 -24 -30 -19 -30 13 0 59 48 52 55 -2 3 -17 -9
-33 -25z"/>
<path d="M2960 4139 c-7 -11 -10 -23 -7 -25 2 -2 9 7 15 21 14 30 7 33 -8 4z"/>
<path d="M1710 4140 c-12 -8 -10 -10 8 -10 13 0 20 4 17 10 -7 12 -6 12 -25 0z"/>
<path d="M2450 4139 c-14 -6 -32 -8 -41 -6 -12 3 -15 -1 -12 -13 4 -16 7 -16
46 3 60 28 64 39 7 16z"/>
<path d="M2680 4143 c0 -12 38 -48 45 -41 3 2 -6 15 -20 28 -14 13 -25 19 -25
13z"/>
<path d="M2780 4133 c19 -10 38 -22 42 -28 5 -6 8 -3 8 6 0 9 -11 20 -24 23
-13 3 -32 8 -43 11 -10 3 -2 -2 17 -12z"/>
<path d="M3490 4138 c0 -17 21 -29 48 -27 14 0 14 2 2 6 -8 3 -23 12 -32 21
-16 14 -18 14 -18 0z"/>
<path d="M1700 4029 c-20 -7 -18 -8 12 -4 20 3 38 1 41 -5 3 -6 4 -5 3 2 -3
16 -24 19 -56 7z"/>
<path d="M2385 4034 c-287 -42 -576 -134 -800 -253 -92 -49 -35 -30 110 37
173 81 372 146 541 178 185 35 447 44 614 20 136 -19 159 -19 70 1 -63 14
-468 27 -535 17z"/>
<path d="M3470 4032 c0 -6 -3 -19 -6 -29 -6 -17 -6 -17 7 0 12 15 19 16 42 8
16 -6 40 -11 55 -10 21 0 17 3 -18 13 -25 7 -53 16 -62 21 -11 4 -18 3 -18 -3z"/>
<path d="M1638 4013 c6 -2 18 -2 25 0 6 3 1 5 -13 5 -14 0 -19 -2 -12 -5z"/>
<path d="M3700 4005 c-7 -9 -8 -15 -2 -15 5 0 12 7 16 15 3 8 4 15 2 15 -2 0
-9 -7 -16 -15z"/>
<path d="M2998 3993 c6 -2 18 -2 25 0 6 3 1 5 -13 5 -14 0 -19 -2 -12 -5z"/>
<path d="M3633 3993 c9 -2 25 -2 35 0 9 3 1 5 -18 5 -19 0 -27 -2 -17 -5z"/>
<path d="M2973 3955 c0 -19 4 -25 16 -23 9 2 16 12 16 23 0 11 -7 21 -16 23
-12 2 -16 -4 -16 -23z"/>
<path d="M3098 3973 c7 -3 16 -2 19 1 4 3 -2 6 -13 5 -11 0 -14 -3 -6 -6z"/>
<path d="M2177 3963 c-18 -17 0 -53 27 -53 2 0 3 14 4 30 1 28 -15 40 -31 23z"/>
<path d="M2514 3945 c-19 -14 -19 -14 1 -16 52 -4 78 6 55 21 -21 13 -33 12
-56 -5z"/>
<path d="M3175 3950 c11 -5 27 -9 35 -9 9 0 8 4 -5 9 -11 5 -27 9 -35 9 -9 0
-8 -4 5 -9z"/>
<path d="M3464 3942 c0 -14 11 -17 51 -19 l50 -1 -39 9 c-22 5 -44 14 -51 19
-7 6 -11 3 -11 -8z"/>
<path d="M1695 3940 c-26 -7 -23 -8 16 -6 26 0 45 4 42 9 -5 8 -16 8 -58 -3z"/>
<path d="M3052 3938 c-17 -17 -15 -23 13 -36 14 -6 25 -16 25 -22 0 -5 -11
-12 -25 -16 -30 -7 -31 -15 -7 -37 41 -37 122 0 122 56 0 51 -92 91 -128 55z"/>
<path d="M3657 3930 c-7 -11 -33 -29 -58 -40 -41 -20 -30 -23 16 -4 18 7 18 6
6 -9 -7 -9 -10 -17 -6 -17 10 0 30 26 50 63 18 31 13 36 -8 7z"/>
<path d="M1560 3932 c0 -17 41 -46 65 -47 14 0 25 3 25 7 0 4 -4 8 -9 8 -5 0
-22 5 -38 12 l-28 11 30 7 c30 8 30 8 -7 9 -21 0 -38 -3 -38 -7z"/>
<path d="M2042 3930 c-54 -22 -53 -100 2 -126 29 -14 37 -15 61 -3 39 19 41
33 8 48 -27 12 -27 13 -9 27 10 7 24 15 30 18 15 6 -31 46 -53 45 -9 0 -26 -4
-39 -9z"/>
<path d="M3330 3900 c8 -5 20 -10 25 -10 6 0 3 5 -5 10 -8 5 -19 10 -25 10 -5
0 -3 -5 5 -10z"/>
<path d="M2953 3875 c0 -19 4 -25 16 -23 9 2 16 12 16 23 0 11 -7 21 -16 23
-12 2 -16 -4 -16 -23z"/>
<path d="M3244 3875 c-2 -19 2 -25 15 -23 20 4 21 42 1 46 -10 2 -15 -6 -16
-23z"/>
<path d="M1907 3884 c-14 -15 -7 -44 11 -44 13 0 18 7 17 22 -2 23 -16 34 -28
22z"/>
<path d="M2201 3881 c-17 -11 -10 -45 11 -49 13 -2 16 3 14 22 -3 32 -8 37
-25 27z"/>
<path d="M1430 3850 c0 -6 7 -10 15 -10 8 0 15 2 15 4 0 2 -7 6 -15 10 -8 3
-15 1 -15 -4z"/>
<path d="M3208 3795 c2 -14 10 -24 16 -22 17 6 13 41 -5 45 -13 2 -15 -3 -11
-23z"/>
<path d="M1932 3788 c2 -13 9 -23 17 -23 8 0 15 10 16 23 1 16 -4 22 -17 22
-14 0 -19 -6 -16 -22z"/>
<path d="M2305 3770 c-134 -27 -209 -48 -315 -87 -100 -38 -402 -183 -380
-183 7 0 77 31 154 69 248 120 435 180 646 206 89 11 96 13 45 13 -33 0 -100
-8 -150 -18z"/>
<path d="M2733 3783 c15 -2 37 -2 50 0 12 2 0 4 -28 4 -27 0 -38 -2 -22 -4z"/>
<path d="M2823 3773 c9 -2 23 -2 30 0 6 3 -1 5 -18 5 -16 0 -22 -2 -12 -5z"/>
<path d="M3615 3770 c4 -6 -6 -10 -22 -10 -37 0 -69 -23 -77 -55 -6 -25 7 -64
28 -77 18 -13 81 -9 101 6 18 13 17 14 -8 31 -34 22 -34 33 -2 41 28 7 34 31
10 40 -8 4 -13 10 -10 14 3 4 -2 11 -11 14 -8 3 -12 2 -9 -4z"/>
<path d="M1588 3755 c-47 -26 -46 -99 2 -125 30 -16 75 -12 94 9 16 17 15 19
-14 31 -38 16 -38 24 -1 40 34 14 32 32 -5 49 -32 14 -43 14 -76 -4z"/>
<path d="M2878 3763 c6 -2 18 -2 25 0 6 3 1 5 -13 5 -14 0 -19 -2 -12 -5z"/>
<path d="M2928 3753 c6 -2 18 -2 25 0 6 3 1 5 -13 5 -14 0 -19 -2 -12 -5z"/>
<path d="M2978 3743 c7 -3 16 -2 19 1 4 3 -2 6 -13 5 -11 0 -14 -3 -6 -6z"/>
<path d="M3060 3719 c30 -11 59 -18 65 -16 10 4 -91 38 -109 36 -6 0 14 -9 44
-20z"/>
<path d="M3190 3680 c8 -5 20 -10 25 -10 6 0 3 5 -5 10 -8 5 -19 10 -25 10 -5
0 -3 -5 5 -10z"/>
<path d="M2475 3608 c-86 -76 -154 -108 -254 -119 -42 -5 -108 -17 -147 -27
-64 -16 -71 -16 -66 -3 3 9 -13 -1 -35 -21 -50 -44 -61 -50 -142 -78 -35 -11
-96 -38 -135 -58 -39 -20 -74 -36 -78 -37 -4 0 -15 -11 -24 -25 -32 -47 -69
-82 -124 -117 -30 -20 -85 -60 -123 -90 -55 -45 -73 -66 -98 -121 -16 -37 -48
-84 -69 -105 -40 -38 -107 -124 -128 -164 -7 -12 -16 -53 -22 -92 -6 -46 -21
-90 -40 -125 -17 -29 -43 -92 -60 -140 -28 -85 -29 -87 -13 -139 14 -45 14
-68 4 -172 -17 -179 -15 -204 20 -279 17 -36 35 -96 40 -134 16 -118 52 -216
97 -267 22 -25 48 -67 56 -93 9 -26 41 -87 70 -137 46 -77 63 -96 116 -130 34
-22 70 -53 80 -70 10 -17 54 -64 97 -105 42 -41 77 -78 76 -81 -1 -4 24 -16
57 -28 32 -12 78 -38 102 -58 24 -20 82 -62 129 -93 80 -53 92 -58 157 -62 45
-3 82 -12 104 -25 18 -11 71 -33 118 -49 71 -24 102 -29 190 -29 58 0 158 -5
222 -9 l116 -9 -59 -50 c-32 -28 -59 -52 -59 -54 0 -9 40 20 100 73 79 69 149
103 238 114 66 9 185 34 218 47 14 5 15 3 4 -18 -10 -18 -1 -13 32 17 54 50
63 55 167 93 45 16 106 43 136 59 32 17 55 25 55 19 1 -7 8 2 17 18 29 54 63
88 151 146 122 80 186 143 207 203 11 31 40 73 74 110 105 114 132 158 142
236 5 44 20 92 40 132 18 35 45 101 60 147 29 84 29 85 12 138 -15 47 -15 66
-5 167 18 170 16 209 -14 267 -14 28 -32 87 -39 130 -29 167 -54 238 -99 283
-25 25 -49 63 -62 96 -11 31 -42 93 -70 139 -40 68 -60 90 -109 123 -35 23
-77 63 -100 95 -22 31 -66 79 -97 107 -32 28 -58 56 -58 63 0 7 -8 13 -17 13
-29 0 -126 49 -158 79 -16 16 -66 53 -111 83 -73 50 -87 55 -150 61 -44 3 -87
14 -119 30 -98 49 -192 71 -305 72 -58 1 -156 5 -218 10 l-113 8 48 49 c26 26
45 48 43 48 -3 0 -36 -28 -75 -62z m260 -168 c58 -13 95 -58 95 -116 0 -101
-68 -151 -186 -139 -50 6 -61 10 -50 19 10 8 16 44 21 118 6 97 5 107 -12 117
-14 8 -7 10 37 10 30 0 73 -4 95 -9z m-353 -131 c35 -62 72 -115 83 -119 20
-7 20 -7 0 -13 -54 -15 -75 -17 -75 -7 0 5 4 10 10 10 5 0 2 16 -7 36 -17 34
-20 36 -57 31 -21 -3 -43 -11 -47 -19 -12 -18 -11 -68 1 -68 6 0 10 -4 10 -8
0 -4 -30 -16 -67 -26 -38 -10 -75 -20 -83 -24 -13 -4 -13 -3 -2 11 12 14 11
24 -3 67 -10 30 -22 49 -28 46 -7 -3 -36 -12 -66 -21 -49 -16 -53 -19 -48 -44
11 -51 27 -81 44 -82 12 0 8 -5 -12 -14 -40 -19 -61 -19 -47 -2 11 13 9 20
-45 175 -9 26 -21 42 -31 43 -19 1 35 28 57 29 10 0 11 -3 2 -14 -11 -13 1
-69 19 -89 5 -6 109 26 128 39 2 1 -2 20 -9 43 -8 28 -18 41 -33 44 -18 3 -15
6 16 20 47 21 47 21 41 -2 -5 -20 3 -49 39 -153 17 -49 25 -58 45 -58 29 0 36
15 63 150 24 116 27 130 34 130 3 0 33 -50 68 -111z m695 81 c41 -24 55 -51
55 -105 0 -54 -24 -100 -65 -125 -82 -51 -197 12 -197 108 0 111 114 179 207
122z m300 -121 c60 -25 93 -56 93 -85 0 -25 -24 -54 -46 -54 -16 0 -19 -16 -4
-25 20 -13 11 -63 -16 -84 -36 -28 -58 -26 -134 11 -52 25 -60 32 -42 36 32 5
120 178 103 204 -14 23 -13 22 46 -3z m-1544 -28 c-3 -12 15 -57 46 -114 28
-52 51 -99 51 -105 0 -6 -46 8 -102 30 -158 62 -154 64 -107 -26 26 -48 46
-76 57 -76 15 -1 15 -2 -2 -15 -23 -17 -40 -20 -31 -5 7 11 -80 180 -99 192
-6 4 -17 6 -23 3 -21 -7 -15 3 8 15 17 10 40 4 129 -29 109 -41 135 -48 128
-33 -25 57 -76 136 -91 140 -16 4 -15 7 10 23 15 11 29 19 30 19 0 0 -1 -9 -4
-19z m1821 -184 c19 -26 19 -30 5 -55 -8 -15 -30 -32 -49 -38 -34 -11 -35 -13
-38 -69 -2 -34 2 -63 9 -71 19 -23 4 -26 -22 -5 -21 17 -24 28 -24 92 0 86
-13 97 -48 42 -18 -27 -22 -42 -14 -51 19 -23 -1 -24 -37 0 -36 23 -49 45 -21
34 22 -8 136 164 128 194 -5 21 -2 20 42 -12 26 -18 57 -46 69 -61z m-2089 13
c-6 -10 69 -134 108 -177 11 -12 25 -20 31 -17 6 3 0 -4 -14 -15 -26 -22 -45
-28 -35 -11 3 5 -22 51 -55 101 -52 77 -65 90 -83 85 -18 -4 -16 -1 8 19 31
25 51 33 40 15z m1217 -75 c55 -37 92 -107 92 -172 0 -42 -6 -60 -30 -95 -17
-24 -48 -54 -68 -67 l-36 -24 0 -77 c0 -42 2 -79 4 -81 2 -2 32 -2 65 -1 43 3
61 8 61 17 0 8 5 17 10 20 16 10 50 -5 50 -21 0 -21 27 -17 33 6 7 26 37 26
44 1 3 -14 15 -21 37 -23 17 -2 30 -6 29 -10 -2 -5 -3 -51 -3 -103 l0 -95 -29
-6 c-17 -4 -32 -12 -35 -20 -7 -19 -33 -18 -44 3 -10 16 -22 14 -54 -9 -15
-10 -20 -9 -32 7 -13 19 -27 20 -198 20 -169 0 -186 -2 -209 -20 -32 -25 -28
-38 28 -93 40 -41 43 -47 43 -98 0 -30 -4 -54 -10 -54 -5 0 -10 5 -10 10 0 6
-17 27 -38 48 -20 20 -74 78 -119 127 l-83 90 0 98 c0 78 3 97 15 97 8 0 30
32 50 73 31 62 54 97 118 177 10 12 9 23 0 50 -18 53 -15 81 13 138 38 76 102
112 199 112 59 0 76 -4 107 -25z m-1301 -86 c15 -15 20 -30 17 -54 -4 -32 -1
-35 40 -51 24 -9 54 -17 67 -18 21 -1 22 -3 11 -15 -12 -11 -23 -10 -74 7 -51
17 -64 18 -78 7 -17 -12 -16 -15 11 -48 17 -20 36 -36 43 -36 18 -1 15 -14 -7
-28 -16 -10 -20 -10 -23 3 -2 9 -32 49 -68 90 -46 52 -70 72 -84 69 -27 -6 40
63 79 81 40 18 42 17 66 -7z m2359 -43 c0 -8 -23 -62 -51 -120 -27 -59 -49
-114 -48 -124 3 -35 -2 -35 -36 -2 -37 35 -46 56 -20 46 10 -3 20 5 30 25 14
27 14 31 -2 54 -24 32 -37 36 -73 23 -24 -8 -29 -15 -25 -29 9 -27 -7 -23 -38
9 -32 34 -34 46 -6 39 18 -5 100 24 219 77 44 19 50 19 50 2z m121 -196 c10
-6 28 -28 39 -50 l20 -39 -22 -15 c-32 -23 -39 -20 -26 9 23 51 -29 100 -62
60 -8 -10 -12 -40 -11 -79 2 -58 0 -66 -25 -85 -15 -11 -33 -21 -41 -21 -24 0
-72 39 -89 72 -16 30 -15 31 16 62 32 30 32 30 25 6 -17 -61 -17 -75 4 -94 18
-16 25 -17 47 -7 26 11 26 14 20 75 -5 55 -3 67 15 89 22 29 56 35 90 17z
m-2610 -45 c57 -20 112 -34 121 -31 16 4 16 2 2 -19 l-15 -23 -39 19 c-21 11
-43 19 -47 19 -4 0 -19 -17 -32 -37 -23 -36 -23 -37 -5 -70 12 -24 23 -33 35
-30 16 4 15 1 -3 -24 -21 -28 -36 -41 -23 -19 6 9 -43 108 -105 213 -28 47
-23 47 111 2z m2699 -239 c0 -5 -7 -3 -15 4 -12 10 -32 3 -107 -38 -81 -44
-93 -53 -90 -74 4 -28 -6 -18 -38 35 l-22 38 25 -7 c20 -4 48 6 117 42 51 28
90 55 90 64 1 15 39 -47 40 -64z m-2885 1 c7 -8 54 -28 104 -46 76 -27 94 -31
107 -20 13 10 12 6 -2 -24 -14 -29 -19 -34 -28 -22 -11 14 -154 70 -161 63 -2
-2 29 -37 70 -78 41 -41 75 -78 75 -81 0 -4 -51 -10 -112 -14 l-113 -8 65 -30
c36 -16 77 -30 92 -31 31 -1 30 -1 22 -34 -6 -22 -7 -22 -20 -4 -7 10 -52 36
-99 57 -73 33 -90 37 -106 27 -22 -14 -23 -12 -7 23 11 25 13 25 120 25 81 0
108 3 108 13 0 7 -33 45 -74 86 -53 53 -72 78 -69 92 6 23 10 23 28 6z m2923
-116 c15 -50 15 -56 -3 -41 -11 9 -33 6 -110 -20 -52 -17 -97 -36 -100 -40
-11 -18 23 -80 44 -80 11 0 23 -4 26 -10 4 -6 -8 -10 -29 -10 l-35 0 -26 81
c-30 96 -30 92 -6 77 28 -17 217 40 215 65 -3 31 13 17 24 -22z m-1335 -164
c5 -142 18 -200 42 -191 13 6 55 -90 55 -125 0 -18 -56 -103 -72 -109 -4 -2
-8 -36 -8 -76 0 -125 30 -527 40 -547 14 -25 60 -48 113 -55 83 -12 287 38
287 70 0 6 -23 24 -51 40 -28 15 -47 32 -42 36 4 5 37 20 72 34 93 37 148 76
231 161 l73 76 -5 -104 c-5 -84 -13 -124 -43 -213 -20 -60 -48 -129 -60 -154
l-23 -45 -18 33 c-40 72 -34 71 -115 10 -126 -94 -200 -136 -301 -169 l-97
-32 25 -19 c32 -26 47 -54 39 -78 -5 -17 -12 -19 -48 -14 -23 4 -48 11 -55 17
-8 6 -21 12 -30 13 -10 1 -24 5 -33 8 -12 5 -23 -2 -39 -24 l-22 -30 -44 49
c-46 51 -56 56 -214 106 -114 35 -206 83 -318 166 -51 38 -96 67 -101 65 -4
-3 -16 -23 -26 -46 -10 -22 -23 -39 -29 -37 -17 6 -92 184 -115 272 -24 97
-36 224 -22 245 8 12 14 9 32 -15 65 -86 215 -200 317 -240 23 -10 42 -21 42
-26 0 -5 -18 -18 -39 -29 -22 -11 -42 -24 -45 -29 -10 -15 33 -40 117 -66 76
-24 168 -35 138 -16 -9 6 -11 18 -7 34 4 16 1 27 -6 29 -9 3 -5 19 12 56 14
29 28 52 32 52 4 0 17 21 29 48 11 26 29 65 39 87 10 22 20 48 23 58 12 35 27
16 24 -30 -1 -37 1 -48 13 -48 17 0 21 43 40 470 6 143 13 276 15 295 2 19 4
67 5 107 l0 72 73 3 c39 2 77 2 83 0 7 -2 13 -54 17 -145z"/>
<path d="M2657 3423 c-3 -5 -7 -55 -9 -113 l-3 -105 41 -3 c102 -8 153 135 73
202 -29 25 -92 36 -102 19z"/>
<path d="M2303 3309 l-11 -51 31 6 c17 3 32 8 34 10 2 2 -7 22 -20 45 l-24 42
-10 -52z"/>
<path d="M2970 3387 c-33 -17 -60 -72 -60 -125 0 -91 99 -137 154 -72 28 34
42 103 28 140 -20 53 -78 80 -122 57z"/>
<path d="M3355 3211 c-9 -22 -15 -44 -11 -49 9 -15 39 -20 64 -11 28 10 30 59
4 82 -27 25 -37 21 -57 -22z"/>
<path d="M3326 3143 c-4 -4 -16 -27 -27 -52 -21 -48 -18 -55 29 -67 49 -13 84
64 45 98 -27 23 -39 28 -47 21z"/>
<path d="M3554 3050 c-28 -42 -26 -53 13 -64 24 -8 63 26 63 54 0 16 -29 50
-43 50 -4 0 -19 -18 -33 -40z"/>
<path d="M2584 2906 c-28 -28 -34 -42 -34 -76 0 -23 5 -50 10 -61 10 -17 13
-18 38 -5 51 26 94 28 135 7 36 -18 38 -18 47 -1 13 24 13 73 -1 102 -17 38
-70 68 -118 68 -36 0 -49 -6 -77 -34z"/>
<path d="M2495 2633 c-33 -40 -74 -104 -75 -116 0 -4 12 -4 26 -1 20 5 26 2
31 -14 3 -14 15 -21 41 -24 69 -8 72 -4 72 81 0 74 -1 77 -29 94 -16 9 -31 17
-33 16 -1 0 -16 -17 -33 -36z"/>
<path d="M2410 2490 c0 -5 5 -10 10 -10 6 0 10 5 10 10 0 6 -4 10 -10 10 -5 0
-10 -4 -10 -10z"/>
<path d="M1397 2894 c-35 -19 -34 -30 8 -78 34 -38 35 -39 55 -21 35 31 23 81
-25 108 -6 3 -22 -1 -38 -9z"/>
<path d="M3737 2812 l-39 -17 21 -19 c13 -12 25 -16 29 -10 9 9 33 64 29 64
-1 0 -19 -8 -40 -18z"/>
<path d="M1257 2622 c-2 -4 8 -26 23 -50 l28 -43 21 27 c12 15 21 30 21 34 0
11 -89 41 -93 32z"/>
<path d="M2503 1202 c-27 -21 -43 -62 -43 -108 0 -41 26 -57 46 -30 12 17 31
142 23 151 -3 2 -14 -4 -26 -13z"/>
<path d="M3240 3660 c8 -5 20 -10 25 -10 6 0 3 5 -5 10 -8 5 -19 10 -25 10 -5
0 -3 -5 5 -10z"/>
<path d="M2053 3538 c-20 -26 -26 -41 -15 -34 12 7 36 46 29 46 -3 0 -9 -6
-14 -12z"/>
<path d="M3595 3500 c-16 -7 -17 -9 -3 -9 9 -1 20 4 23 9 7 11 7 11 -20 0z"/>
<path d="M1635 3330 c-14 -27 -21 -59 -10 -49 8 9 35 79 30 79 -2 0 -11 -13
-20 -30z"/>
<path d="M860 2274 c0 -5 7 -19 15 -30 8 -10 15 -14 15 -8 0 5 -7 19 -15 30
-8 10 -15 14 -15 8z"/>
<path d="M4330 1653 c0 -16 54 -117 57 -106 2 6 -7 34 -22 62 -23 47 -35 61
-35 44z"/>
<path d="M3581 569 c-14 -42 -7 -49 9 -9 7 17 10 33 8 36 -3 3 -11 -9 -17 -27z"/>
<path d="M3170 370 c-6 -11 -8 -20 -6 -20 3 0 10 9 16 20 6 11 8 20 6 20 -3 0
-10 -9 -16 -20z"/>
</g>
</svg>
