<?xml version="1.0" standalone="no"?>
<!DOCTYPE svg PUBLIC "-//W3C//DTD SVG 20010904//EN"
 "http://www.w3.org/TR/2001/REC-SVG-20010904/DTD/svg10.dtd">
<svg version="1.0" xmlns="http://www.w3.org/2000/svg"
 width="512.000000pt" height="512.000000pt" viewBox="0 0 512.000000 512.000000"
 preserveAspectRatio="xMidYMid meet">

<g transform="translate(0.000000,512.000000) scale(0.100000,-0.100000)"
fill="#000000" stroke="none">
<path d="M1760 4149 c0 -63 -17 -171 -35 -228 -4 -14 51 -23 468 -75 259 -32
484 -61 500 -63 l27 -5 0 73 c0 63 17 171 35 228 4 14 -51 23 -468 75 -259 32
-484 61 -499 63 l-28 6 0 -74z"/>
<path d="M2430 2491 c-286 -430 -520 -783 -520 -785 0 -2 30 -21 68 -41 37
-21 95 -60 129 -87 l62 -49 521 780 c286 430 520 783 520 785 0 2 -30 21 -67
41 -38 21 -96 60 -130 87 l-62 49 -521 -780z"/>
<path d="M3819 3099 c-36 -15 -103 -36 -150 -45 l-86 -16 94 -327 c51 -179 98
-342 103 -362 l10 -37 68 28 c37 16 106 36 153 46 l86 16 -103 361 c-57 198
-105 361 -106 362 -2 1 -33 -11 -69 -26z"/>
<path d="M2830 1434 c-272 -69 -496 -127 -498 -129 -2 -2 8 -37 22 -78 14 -42
31 -110 38 -151 6 -42 15 -76 20 -76 12 0 1012 251 1016 255 2 2 -8 37 -22 78
-14 42 -31 110 -38 151 -9 58 -15 76 -27 75 -9 0 -239 -57 -511 -125z"/>
</g>
</svg>
